<svg width="60" height="40" viewBox="0 0 60 40" fill="none" xmlns="http://www.w3.org/2000/svg">
    <mask id="mask0_190_3256" style="mask-type:alpha" maskUnits="userSpaceOnUse" x="0" y="0" width="60" height="40">
        <rect width="60" height="40" rx="4" fill="#006FCF"/>
    </mask>
    <g mask="url(#mask0_190_3256)">
        <rect width="60" height="40" rx="4" fill="#006FCF"/>
        <rect width="66.5" height="42" transform="translate(-5 -1)" fill="white"/>
        <path d="M55.5101 36.2473L52.6364 33.0421L49.6522 36.2473H43.7943H31.1943V21.3263H25.3364L32.6311 4.63681H39.7048L42.2469 10.3842V4.63681H51.089L52.6364 8.94733L54.1838 4.63681H60.9259V2.0947C60.9259 0.547333 59.7101 -0.668457 58.1627 -0.668457H-1.07937C-2.62674 -0.668457 -3.84253 0.547333 -3.84253 2.0947V38.0158C-3.84253 39.5631 -2.62674 40.7789 -1.07937 40.7789H58.1627C59.7101 40.7789 60.9259 39.5631 60.9259 38.0158V36.2473H55.5101Z"
              fill="#0071CE"/>
        <path d="M56.2838 34.4789H60.9259L54.8469 27.9579L60.9259 21.5474H56.3943L52.5259 25.7474L48.768 21.5474H44.1259L50.3153 28.0684L44.1259 34.4789H48.6574L52.5259 30.2789L56.2838 34.4789Z"
              fill="#0071CE"/>
        <path d="M36.7206 31.4947V29.5053H44.0154V26.521H36.7206V24.5316H44.1259V21.5474H33.1838V34.4789H44.1259V31.4947H36.7206Z"
              fill="#0071CE"/>
        <path d="M57.4995 19.6686H60.8153V6.62646L55.5101 6.73699L52.6364 14.8054L49.6522 6.73699H44.1259V19.6686H47.6627V10.6054L50.9785 19.6686H54.0732L57.4995 10.6054V19.6686Z"
              fill="#0071CE"/>
        <path d="M38.489 6.73682H33.9575L28.2101 19.6684H32.0785L33.1838 17.1263H39.1522L40.2574 19.6684H44.2364L38.489 6.73682ZM34.3996 14.1421L36.168 9.94208L37.9364 14.1421H34.3996Z"
              fill="#0071CE"/>
        <path d="M57.7206 27.6262L60.9259 31.163V24.0894L57.7206 27.6262Z" fill="#0071CE"/>
    </g>
</svg>
