<svg width="60" height="40" viewBox="0 0 60 40" fill="none" xmlns="http://www.w3.org/2000/svg">
<rect x="0.5" y="0.5" width="59" height="39" rx="3.5" fill="white" stroke="#DDDDDD"/>
<path d="M54.4834 34.7547C54.4834 36.5477 52.9952 38 51.1664 38H8.83362C6.9958 38 5.51657 36.5477 5.51657 34.7547V5.49289C5.51657 3.69989 7.00476 2.24756 8.83362 2.24756H51.1664C53.0042 2.24756 54.4834 3.69989 54.4834 5.49289V34.7547Z" fill="white"/>
<path d="M10.8866 28.0578C10.8866 28.7481 11.3797 28.8288 11.81 28.8288C13.7375 28.8288 14.365 27.3765 14.365 26.0497C14.365 24.3822 13.2982 23.1809 11.5769 23.1809C11.2093 23.1809 11.039 23.2078 10.8776 23.2167V28.0578H10.8866ZM10.008 23.8801C10.008 23.0822 9.58666 23.1271 9.1922 23.1271V22.894C9.54183 22.9119 9.89147 22.9119 10.2411 22.9119C10.6176 22.9119 11.1197 22.894 11.7831 22.894C14.0871 22.894 15.3512 24.436 15.3512 26.0138C15.3512 26.9013 14.8312 29.1157 11.6755 29.1157C11.2183 29.1157 10.8059 29.0978 10.3845 29.0978C9.98112 29.0978 9.58666 29.1067 9.1922 29.1157V28.8826C9.7301 28.8288 9.99008 28.8109 10.008 28.2013V23.8801V23.8801Z" fill="#1D1D1B"/>
<path d="M16.6152 23.665C16.3821 23.665 16.176 23.4498 16.176 23.2167C16.176 22.9926 16.3911 22.7864 16.6152 22.7864C16.8483 22.7864 17.0545 22.9747 17.0545 23.2167C17.0545 23.4588 16.8573 23.665 16.6152 23.665ZM15.6649 28.8826H15.8353C16.0863 28.8826 16.2656 28.8826 16.2656 28.5868V26.1752C16.2656 25.7807 16.1311 25.7269 15.7994 25.5476V25.4042C16.2208 25.2787 16.7139 25.1083 16.7497 25.0814C16.8125 25.0456 16.8663 25.0366 16.9111 25.0366C16.9559 25.0366 16.9738 25.0904 16.9738 25.1621V28.5868C16.9738 28.8826 17.1711 28.8826 17.4221 28.8826H17.5745V29.1157C17.2697 29.1157 16.9559 29.0978 16.6421 29.0978C16.3194 29.0978 15.9967 29.1067 15.6739 29.1157V28.8826H15.6649Z" fill="#1D1D1B"/>
<path d="M18.4172 26.229C18.4172 25.8973 18.3186 25.8076 17.8972 25.6373V25.4669C18.2827 25.3414 18.6413 25.2249 19.0717 25.0366C19.0986 25.0366 19.1254 25.0545 19.1254 25.1263V25.709C19.6365 25.3414 20.0757 25.0366 20.6674 25.0366C21.4205 25.0366 21.6894 25.5924 21.6894 26.2827V28.5778C21.6894 28.8736 21.8867 28.8736 22.1377 28.8736H22.2991V29.1067C21.9853 29.1067 21.6715 29.0888 21.3577 29.0888C21.035 29.0888 20.7123 29.0978 20.3985 29.1067V28.8736H20.5598C20.8109 28.8736 20.9902 28.8736 20.9902 28.5778V26.2738C20.9902 25.7628 20.6764 25.5118 20.1744 25.5118C19.8875 25.5118 19.4303 25.7448 19.1434 25.9421V28.5778C19.1434 28.8736 19.3406 28.8736 19.5916 28.8736H19.753V29.1067C19.4392 29.1067 19.1254 29.0888 18.8117 29.0888C18.4889 29.0888 18.1662 29.0978 17.8524 29.1067V28.8736H18.0138C18.2648 28.8736 18.4441 28.8736 18.4441 28.5778V26.229H18.4172Z" fill="#1D1D1B"/>
<path d="M24.5582 26.3724C24.7824 26.3724 24.8092 26.2559 24.8092 26.1483C24.8092 25.6911 24.5313 25.3325 24.0293 25.3325C23.4824 25.3325 23.1149 25.7359 23.0073 26.3724H24.5582ZM22.9804 26.6503C22.9625 26.731 22.9625 26.8655 22.9804 27.1703C23.0342 28.013 23.581 28.7123 24.2893 28.7123C24.7824 28.7123 25.1678 28.4433 25.4906 28.1116L25.6161 28.2371C25.2037 28.784 24.7017 29.2412 23.9665 29.2412C22.5501 29.2412 22.2632 27.8696 22.2632 27.2958C22.2632 25.5476 23.4376 25.0276 24.0652 25.0276C24.7913 25.0276 25.5623 25.4849 25.5713 26.4262C25.5713 26.48 25.5713 26.5338 25.5623 26.5876L25.4816 26.6413H22.9804V26.6503Z" fill="#1D1D1B"/>
<path d="M25.7864 28.8826H26.0285C26.2795 28.8826 26.4588 28.8826 26.4588 28.5868V26.0855C26.4588 25.8076 26.1271 25.7538 25.9926 25.6821V25.5476C26.6471 25.2697 26.9967 25.0366 27.0774 25.0366C27.1312 25.0366 27.1581 25.0635 27.1581 25.1532V25.96H27.176C27.4001 25.6104 27.7767 25.0456 28.3146 25.0456C28.5387 25.0456 28.8256 25.198 28.8256 25.5207C28.8256 25.7628 28.6552 25.9779 28.4042 25.9779C28.1263 25.9779 28.1263 25.7628 27.8125 25.7628C27.6601 25.7628 27.1581 25.969 27.1581 26.5069V28.6047C27.1581 28.9005 27.3374 28.9005 27.5884 28.9005H28.0904V29.1336C27.5974 29.1247 27.2298 29.1157 26.8443 29.1157C26.4767 29.1157 26.1002 29.1247 25.7864 29.1336V28.8826V28.8826Z" fill="#1D1D1B"/>
<path d="M29.2111 27.8785C29.3276 28.4702 29.6862 28.9633 30.3317 28.9633C30.8606 28.9633 31.0489 28.6405 31.0489 28.3268C31.0489 27.2779 29.1035 27.6096 29.1035 26.1752C29.1035 25.6731 29.5069 25.0366 30.4841 25.0366C30.771 25.0366 31.1565 25.1173 31.4972 25.2966L31.5599 26.2021H31.3537C31.2641 25.6373 30.9503 25.3235 30.3855 25.3235C30.0269 25.3235 29.6862 25.5297 29.6862 25.9152C29.6862 26.9551 31.7571 26.6413 31.7571 28.0399C31.7571 28.6316 31.282 29.2502 30.2241 29.2502C29.8655 29.2502 29.4442 29.1247 29.1394 28.9454L29.0407 27.9233L29.2111 27.8785Z" fill="#1D1D1B"/>
<path d="M39.8256 24.5077H39.6015C39.4312 23.4677 38.696 23.0464 37.692 23.0464C36.6699 23.0464 35.1817 23.7367 35.1817 25.8704C35.1817 27.6723 36.4637 28.9633 37.8354 28.9633C38.714 28.9633 39.4491 28.3537 39.6284 27.4213L39.8346 27.4751L39.6284 28.775C39.2519 29.0081 38.2478 29.2502 37.6561 29.2502C35.5672 29.2502 34.2494 27.9054 34.2494 25.8973C34.2494 24.0684 35.881 22.7595 37.6292 22.7595C38.3554 22.7595 39.0457 22.9926 39.736 23.2346L39.8256 24.5077Z" fill="#1D1D1B"/>
<path d="M40.1394 28.8826H40.3097C40.5608 28.8826 40.7401 28.8826 40.7401 28.5868V23.6201C40.7401 23.0374 40.6056 23.0195 40.2649 22.9209V22.7774C40.6235 22.6609 41 22.4995 41.1793 22.3919C41.278 22.3381 41.3497 22.2933 41.3766 22.2933C41.4304 22.2933 41.4483 22.3471 41.4483 22.4188V28.5778C41.4483 28.8736 41.6455 28.8736 41.8965 28.8736H42.049V29.1067C41.7441 29.1067 41.4304 29.0888 41.1166 29.0888C40.7938 29.0888 40.4711 29.0978 40.1484 29.1067V28.8826H40.1394Z" fill="#1D1D1B"/>
<path d="M45.868 28.6226C45.868 28.784 45.9667 28.7929 46.1191 28.7929C46.2267 28.7929 46.3611 28.784 46.4777 28.784V28.9722C46.0922 29.0081 45.366 29.1964 45.1957 29.2502L45.1508 29.2233V28.4971C44.6129 28.9364 44.2095 29.2502 43.573 29.2502C43.0889 29.2502 42.5958 28.9364 42.5958 28.1923V25.9062C42.5958 25.6731 42.56 25.449 42.0579 25.4042V25.2338C42.3807 25.2249 43.0889 25.1711 43.2054 25.1711C43.3041 25.1711 43.3041 25.2338 43.3041 25.4311V27.7351C43.3041 28.004 43.3041 28.7661 44.075 28.7661C44.3799 28.7661 44.7833 28.533 45.1508 28.2192V25.8166C45.1508 25.6373 44.7205 25.5386 44.4068 25.449V25.2876C45.2046 25.2338 45.7067 25.1621 45.7963 25.1621C45.8681 25.1621 45.868 25.2249 45.868 25.3235V28.6226V28.6226Z" fill="#1D1D1B"/>
<path d="M47.6431 28.1026C47.6431 28.4433 47.9659 29.0081 48.5576 29.0081C49.5078 29.0081 49.9113 28.0758 49.9113 27.2779C49.9113 26.3186 49.1851 25.5118 48.4858 25.5118C48.1541 25.5118 47.8762 25.7269 47.6342 25.9331V28.1026H47.6431ZM47.6431 25.6821C48.0017 25.3773 48.4769 25.0366 48.9699 25.0366C50.0009 25.0366 50.6285 25.9421 50.6285 26.9103C50.6285 28.0758 49.7768 29.2502 48.4948 29.2502C47.8314 29.2502 47.4907 29.035 47.2576 28.9364L46.9887 29.1426L46.8004 29.044C46.8811 28.515 46.9259 28.004 46.9259 27.4572V23.6201C46.9259 23.0374 46.7914 23.0195 46.4508 22.9209V22.7774C46.8094 22.6609 47.1859 22.4995 47.3652 22.3919C47.4638 22.3381 47.5355 22.2933 47.5624 22.2933C47.6162 22.2933 47.6342 22.3471 47.6342 22.4188V25.6821H47.6431Z" fill="#1D1D1B"/>
<path d="M9.18323 34.2975H9.25495C9.42528 34.2975 9.61355 34.2706 9.61355 34.0195V31.4825C9.61355 31.2314 9.42528 31.2045 9.25495 31.2045H9.18323V31.0611C9.37149 31.0611 9.66734 31.079 9.90043 31.079C10.1425 31.079 10.4294 31.0611 10.6625 31.0611V31.2045H10.5907C10.4204 31.2045 10.2321 31.2314 10.2321 31.4825V34.0195C10.2321 34.2706 10.4204 34.2975 10.5907 34.2975H10.6625V34.4409C10.4294 34.4409 10.1425 34.423 9.90043 34.423C9.65837 34.423 9.38046 34.4409 9.18323 34.4409V34.2975Z" fill="#1D1D1B"/>
<path d="M10.6445 34.423V34.3154H10.5997C10.4294 34.3154 10.2232 34.2885 10.2232 34.0195V31.4824C10.2232 31.2135 10.4294 31.1866 10.5997 31.1866H10.6445V31.079C10.4204 31.079 10.1425 31.097 9.90044 31.097C9.66735 31.097 9.38944 31.079 9.20117 31.079V31.1866H9.246C9.41633 31.1866 9.62253 31.2135 9.62253 31.4824V34.0195C9.62253 34.2885 9.41633 34.3154 9.246 34.3154H9.20117V34.423C9.38944 34.423 9.66735 34.405 9.89148 34.405C10.1335 34.405 10.4114 34.423 10.6445 34.423ZM10.6625 34.4678C10.4294 34.4678 10.1335 34.4499 9.90044 34.4499C9.66735 34.4499 9.38047 34.4678 9.18324 34.4678H9.16531V34.4499V34.3064V34.2885H9.18324H9.25496C9.43426 34.2885 9.58667 34.2706 9.59563 34.0285V31.4914C9.59563 31.2583 9.43426 31.2404 9.25496 31.2314H9.16531V31.2135V31.0432H9.18324C9.37151 31.0432 9.66735 31.0611 9.90044 31.0611C10.1425 31.0611 10.4294 31.0432 10.6625 31.0432H10.6804V31.0611V31.2314H10.6625H10.5907C10.4114 31.2314 10.2501 31.2494 10.2501 31.4914V34.0285C10.2501 34.2616 10.4114 34.2795 10.5907 34.2885H10.6804V34.3064V34.4768H10.6625V34.4678Z" fill="#1D1D1B"/>
<path d="M13.9974 33.4906L14.0064 33.4816V31.6617C14.0064 31.2673 13.7285 31.2045 13.5851 31.2045H13.4775V31.0611C13.7016 31.0611 13.9257 31.079 14.1588 31.079C14.356 31.079 14.5533 31.0611 14.7595 31.0611V31.2045H14.6878C14.4816 31.2045 14.2574 31.2404 14.2574 31.8231V34.0285C14.2574 34.1988 14.2664 34.3692 14.2843 34.5216H14.0961L11.5948 31.7335V33.7327C11.5948 34.154 11.6755 34.2975 12.052 34.2975H12.1327V34.4409C11.9265 34.4409 11.7114 34.423 11.5052 34.423C11.29 34.423 11.0659 34.4409 10.8418 34.4409V34.2975H10.9135C11.2452 34.2975 11.3528 34.0733 11.3528 33.6789V31.6349C11.3528 31.3659 11.1286 31.1956 10.9135 31.1956H10.8507V31.0521C11.039 31.0521 11.2273 31.0701 11.4066 31.0701C11.55 31.0701 11.6934 31.0521 11.8369 31.0521L13.9974 33.4906Z" fill="#1D1D1B"/>
<path d="M13.9975 33.4906L14.0154 33.4727L13.9975 33.4906ZM14.0871 34.4947H14.2485C14.2306 34.3512 14.2216 34.1899 14.2216 34.0285V31.8231C14.2216 31.2404 14.4636 31.1866 14.6788 31.1866H14.7326V31.079C14.5443 31.079 14.3471 31.097 14.1588 31.097C13.9347 31.097 13.7195 31.079 13.5044 31.079V31.1866H13.594C13.7464 31.1866 14.0333 31.2494 14.0333 31.6617L14.0154 33.4906L14.0064 33.4996L13.9885 33.5175L11.8279 31.079C11.6845 31.079 11.5411 31.097 11.3976 31.097C11.2183 31.097 11.039 31.079 10.8597 31.079V31.1866H10.9045C11.1287 31.1866 11.3618 31.3569 11.3618 31.6438V33.6878C11.3618 34.0733 11.2542 34.3244 10.9045 34.3244H10.8597V34.4319C11.0659 34.4319 11.29 34.414 11.4962 34.414C11.7024 34.414 11.8997 34.4319 12.0969 34.4319V34.3333H12.0341C11.6486 34.3333 11.559 34.163 11.559 33.7416V31.6886L14.0871 34.4947ZM14.2754 34.5395L14.0781 34.5305L11.6128 31.7873V33.7327C11.6217 34.154 11.6845 34.2706 12.0521 34.2795H12.1596V34.2975V34.4678H12.1327C11.9265 34.4678 11.7114 34.4499 11.5052 34.4499C11.29 34.4499 11.0659 34.4678 10.8418 34.4678H10.8239V34.4499V34.2795H10.8418H10.9135C11.2362 34.2795 11.3259 34.0733 11.3259 33.6878V31.6438C11.3259 31.3838 11.1107 31.2314 10.9045 31.2314H10.8239V31.2135V31.0432H10.8418C11.03 31.0432 11.2183 31.0611 11.3976 31.0611C11.5411 31.0611 11.6845 31.0432 11.8459 31.0521L13.9795 33.4547V31.6707C13.9795 31.2852 13.7195 31.2404 13.5761 31.2314H13.4506V31.2135V31.0432H13.4775C13.7106 31.0432 13.9257 31.0611 14.1588 31.0611C14.3561 31.0611 14.5533 31.0432 14.7595 31.0432H14.7774V31.0611V31.2314H14.7595H14.6878C14.4905 31.2404 14.2843 31.2583 14.2754 31.8231V34.0285C14.2754 34.1988 14.2843 34.3692 14.3023 34.5126V34.5395H14.2754V34.5395Z" fill="#1D1D1B"/>
<path d="M15.4767 31.3032C15.1091 31.3032 15.1001 31.3928 15.0284 31.7424H14.885C14.9029 31.608 14.9298 31.4735 14.9477 31.33C14.9657 31.1956 14.9746 31.0611 14.9746 30.9177H15.0912C15.127 31.0611 15.2525 31.0611 15.387 31.0611H17.8883C18.0227 31.0611 18.1393 31.0521 18.1482 30.9087L18.2648 30.9266C18.2469 31.0611 18.2289 31.1866 18.211 31.3211C18.202 31.4556 18.202 31.5811 18.202 31.7155L18.0586 31.7693C18.0496 31.59 18.0227 31.3032 17.7 31.3032H16.9021V33.8851C16.9021 34.2616 17.0724 34.3064 17.3055 34.3064H17.3952V34.4499C17.2069 34.4499 16.8662 34.4319 16.6063 34.4319C16.3104 34.4319 15.9787 34.4499 15.7815 34.4499V34.3064H15.8711C16.1401 34.3064 16.2746 34.2795 16.2746 33.903V31.3121H15.4767V31.3032Z" fill="#1D1D1B"/>
<path d="M17.3862 34.4678C17.198 34.4678 16.8573 34.4499 16.5973 34.4499C16.3104 34.4499 15.9698 34.4678 15.7725 34.4678H15.7546V34.4499V34.2795H15.7725H15.8622C16.1311 34.2706 16.2387 34.2706 16.2387 33.894V31.3211H15.4677V31.3031V31.2852H16.2835V33.894C16.2835 34.2795 16.1222 34.3243 15.8622 34.3243H15.7905V34.423C15.9787 34.423 16.3104 34.405 16.5883 34.405C16.8394 34.405 17.1621 34.423 17.3593 34.423V34.3243H17.2876C17.0545 34.3243 16.8663 34.2706 16.8663 33.8851V31.2852H17.6821C18.0048 31.2852 18.0496 31.5631 18.0586 31.7424L18.1662 31.7066C18.1662 31.5811 18.1662 31.4555 18.1752 31.3211C18.1931 31.1956 18.211 31.0701 18.2289 30.9445L18.1572 30.9356C18.1303 31.079 17.9959 31.088 17.8793 31.079H15.3781H15.3512C15.2346 31.079 15.1091 31.0701 15.0733 30.9356H14.9926C14.9926 31.0701 14.9836 31.1956 14.9657 31.33C14.9478 31.4645 14.9298 31.59 14.9119 31.7155H15.0195C15.0822 31.3749 15.1271 31.2673 15.4857 31.2762V31.2942V31.3121C15.1271 31.3211 15.136 31.3749 15.0553 31.7335V31.7514H15.0374H14.8671V31.7245C14.885 31.59 14.9119 31.4555 14.9298 31.3121C14.9478 31.1776 14.9567 31.0432 14.9567 30.8997V30.8818H14.9746H15.1091V30.8997C15.145 31.0252 15.2346 31.0252 15.3512 31.0252H15.3781H17.8793C18.0138 31.0252 18.1124 31.0252 18.1214 30.8908V30.8639H18.1393L18.2738 30.8818V30.8997C18.2558 31.0342 18.2379 31.1597 18.22 31.2942C18.211 31.4197 18.211 31.5542 18.211 31.6886V31.7066L18.1931 31.7155L18.0227 31.7783V31.7514C18.0138 31.5721 17.9869 31.3031 17.6821 31.3031H16.9111V33.8851C16.9201 34.2526 17.0635 34.2795 17.2966 34.2795H17.4131V34.2975V34.4678H17.3862V34.4678Z" fill="#1D1D1B"/>
<path d="M18.4082 34.2975H18.48C18.6503 34.2975 18.8386 34.2706 18.8386 34.0195V31.4825C18.8386 31.2314 18.6503 31.2045 18.48 31.2045H18.4082V31.0611C18.7041 31.0611 19.2061 31.079 19.6185 31.079C20.0309 31.079 20.5329 31.0611 20.8646 31.0611C20.8557 31.2673 20.8646 31.59 20.8736 31.8052L20.7302 31.8411C20.7033 31.5273 20.6495 31.2763 20.1385 31.2763H19.4661V32.5403H20.0399C20.3267 32.5403 20.3985 32.379 20.4254 32.11H20.5688C20.5598 32.2983 20.5509 32.4865 20.5509 32.6748C20.5509 32.8631 20.5598 33.0424 20.5688 33.2306L20.4254 33.2575C20.3985 32.9706 20.3805 32.7734 20.0488 32.7734H19.4661V33.903C19.4661 34.2168 19.744 34.2168 20.0578 34.2168C20.6405 34.2168 20.9005 34.1809 21.0439 33.6251L21.1784 33.6609C21.1157 33.9209 21.0619 34.172 21.0171 34.4319C20.7033 34.4319 20.1474 34.414 19.7171 34.414C19.2778 34.414 18.7041 34.4319 18.4262 34.4319V34.2975H18.4082Z" fill="#1D1D1B"/>
<path d="M20.9901 34.423C21.035 34.1809 21.0888 33.9299 21.1515 33.6878L21.0529 33.6609C20.9095 34.2078 20.6226 34.2526 20.0578 34.2526C19.753 34.2526 19.4482 34.2526 19.4482 33.912V32.7644H20.0488C20.3895 32.7644 20.4253 32.9617 20.4433 33.2396L20.5509 33.2217C20.5419 33.0424 20.5329 32.8631 20.5329 32.6838C20.5329 32.5045 20.5419 32.3162 20.5509 32.1369H20.4433C20.4164 32.3879 20.3357 32.5672 20.0398 32.5672H19.4392V31.2583H20.1385C20.6405 31.2583 20.7302 31.5183 20.7481 31.8231L20.8557 31.7962C20.8467 31.6617 20.8377 31.4824 20.8377 31.3211C20.8377 31.2404 20.8377 31.1597 20.8467 31.088C20.515 31.088 20.0219 31.1059 19.6275 31.1059C19.233 31.1059 18.7399 31.088 18.4441 31.088V31.1956H18.4889C18.6592 31.1956 18.8654 31.2225 18.8654 31.4914V34.0285C18.8654 34.2975 18.6592 34.3244 18.4889 34.3244H18.4441V34.423C18.722 34.423 19.2868 34.405 19.7171 34.405C20.1295 34.405 20.6764 34.423 20.9901 34.423ZM21.0081 34.4678C20.6943 34.4678 20.1385 34.4499 19.6992 34.4499C19.2599 34.4499 18.6861 34.4678 18.4082 34.4678H18.3903V34.4499V34.3064V34.2885H18.4082H18.4799C18.6592 34.2885 18.8116 34.2706 18.8206 34.0285V31.4914C18.8206 31.2583 18.6592 31.2404 18.4799 31.2314H18.3903V31.2135V31.0432H18.4082C18.7041 31.0432 19.2061 31.0611 19.6185 31.0611C20.0219 31.0611 20.5329 31.0432 20.8646 31.0432H20.8826V31.0701C20.8826 31.1418 20.8736 31.2314 20.8736 31.3211C20.8736 31.4914 20.8826 31.6707 20.8915 31.8142V31.8321L20.8736 31.841L20.7033 31.8859V31.859C20.6764 31.5452 20.6315 31.3121 20.1295 31.3121H19.4751V32.5403H20.0309C20.3088 32.5403 20.3626 32.3969 20.3895 32.1369V32.119H20.4074H20.5777V32.1369C20.5688 32.3252 20.5598 32.5134 20.5598 32.7017C20.5598 32.881 20.5688 33.0693 20.5777 33.2575V33.2754H20.5598L20.3895 33.3113V33.2844C20.3536 32.9886 20.3536 32.8272 20.0309 32.8182H19.4661V33.9299C19.4661 34.2257 19.7171 34.2257 20.0398 34.2257C20.6226 34.2257 20.8557 34.1899 21.0081 33.652L21.017 33.634H21.035L21.1874 33.6699V33.6878C21.1246 33.9478 21.0708 34.1988 21.026 34.4588V34.4768H21.0081V34.4678Z" fill="#1D1D1B"/>
<path d="M22.4425 32.6927H22.6756C23.1597 32.6927 23.4197 32.5045 23.4197 31.9397C23.4197 31.5093 23.1418 31.2314 22.7114 31.2314C22.568 31.2314 22.5052 31.2494 22.4335 31.2494V32.6927H22.4425ZM21.8239 31.5721C21.8239 31.2225 21.6267 31.2045 21.4832 31.2045H21.3936V31.0611C21.546 31.0611 21.8508 31.079 22.1466 31.079C22.4335 31.079 22.6666 31.0611 22.9266 31.0611C23.5362 31.0611 24.0831 31.2225 24.0831 31.9128C24.0831 32.3521 23.7962 32.612 23.4107 32.7644L24.2355 34.0016C24.37 34.2078 24.4686 34.2616 24.7106 34.2885V34.4319C24.5493 34.4319 24.3969 34.414 24.2355 34.414C24.0831 34.414 23.9307 34.4319 23.7783 34.4319C23.4017 33.9389 23.088 33.4189 22.7652 32.8631H22.4425V33.903C22.4425 34.2795 22.6128 34.2885 22.837 34.2885H22.9266V34.4319C22.6487 34.4319 22.3708 34.414 22.0929 34.414C21.8598 34.414 21.6356 34.4319 21.3936 34.4319V34.2885H21.4832C21.6625 34.2885 21.8239 34.2078 21.8239 34.0285V31.5721Z" fill="#1D1D1B"/>
<path d="M22.6845 32.6748C23.1686 32.6658 23.4107 32.5045 23.4107 31.9397C23.4107 31.5183 23.1418 31.2494 22.7204 31.2494C22.5859 31.2494 22.5232 31.2583 22.4694 31.2673V32.6748H22.6845ZM22.4425 32.7196H22.4246V31.2314H22.4425C22.5052 31.2225 22.577 31.2135 22.7204 31.2135C23.1597 31.2135 23.4466 31.5004 23.4466 31.9397C23.4466 32.5224 23.1686 32.7196 22.6756 32.7196H22.4425ZM22.4425 32.8541H22.7742L22.7832 32.8631C23.0969 33.4189 23.4197 33.9478 23.7783 34.423C23.9217 34.423 24.0831 34.405 24.2355 34.405C24.3879 34.405 24.5403 34.423 24.6927 34.423V34.3154C24.4686 34.2885 24.361 34.2168 24.2265 34.0195L23.3838 32.7555L23.4107 32.7465C23.7872 32.5941 24.0741 32.3341 24.0741 31.9128C24.0741 31.2404 23.5541 31.088 22.9445 31.079C22.6935 31.079 22.4604 31.097 22.1646 31.097C21.8777 31.097 21.5908 31.079 21.4294 31.079V31.1866H21.4922C21.6446 31.1866 21.8598 31.2135 21.8598 31.5721V34.0375C21.8598 34.2347 21.6805 34.3244 21.4922 34.3244H21.4294V34.423C21.6625 34.423 21.8867 34.405 22.1108 34.405C22.3797 34.405 22.6576 34.423 22.9266 34.423V34.3244H22.8638C22.6397 34.3244 22.4425 34.2975 22.4425 33.912V32.8541V32.8541V32.8541ZM24.7106 34.4678C24.5493 34.4678 24.3969 34.4499 24.2355 34.4499C24.092 34.4499 23.9307 34.4678 23.7603 34.4588C23.3838 33.9747 23.07 33.4458 22.7563 32.8989H22.4694V33.912C22.4783 34.2795 22.6218 34.2706 22.8459 34.2795H22.9535V34.2975V34.4678H22.9356C22.6576 34.4678 22.3797 34.4499 22.1018 34.4499C21.8687 34.4499 21.6446 34.4678 21.4025 34.4678H21.3846V34.4499V34.2795H21.4025H21.4922C21.6625 34.2795 21.8149 34.1988 21.8149 34.0375V31.5721C21.8149 31.2314 21.6446 31.2314 21.4922 31.2225H21.3846V31.2045V31.0342H21.4025C21.5639 31.0342 21.8598 31.0521 22.1556 31.0521C22.4425 31.0521 22.6756 31.0342 22.9356 31.0342C23.5452 31.0342 24.11 31.2045 24.11 31.9128C24.11 32.3521 23.8231 32.621 23.4466 32.7734L24.2624 33.9927C24.3969 34.1899 24.4865 34.2437 24.7196 34.2706H24.7375V34.2885V34.4588H24.7106V34.4678Z" fill="#1D1D1B"/>
<path d="M28.0008 33.4906L28.0098 33.4816V31.6617C28.0098 31.2673 27.7319 31.2045 27.5884 31.2045H27.4808V31.0611C27.705 31.0611 27.9291 31.079 28.1622 31.079C28.3594 31.079 28.5566 31.0611 28.7628 31.0611V31.2045H28.6911C28.4849 31.2045 28.2608 31.2404 28.2608 31.8231V34.0285C28.2608 34.1988 28.2698 34.3692 28.2877 34.5216H28.1084L25.5982 31.7335V33.7327C25.5982 34.154 25.6789 34.2975 26.0554 34.2975H26.1361V34.4409C25.9299 34.4409 25.7147 34.423 25.5085 34.423C25.2934 34.423 25.0692 34.4409 24.8451 34.4409V34.2975H24.9168C25.2485 34.2975 25.3561 34.0733 25.3561 33.6789V31.6349C25.3561 31.3659 25.132 31.1956 24.9168 31.1956H24.8541V31.0521C25.0334 31.0521 25.2306 31.0701 25.4099 31.0701C25.5534 31.0701 25.6968 31.0521 25.8402 31.0521L28.0008 33.4906Z" fill="#1D1D1B"/>
<path d="M28.0008 33.4906L28.0187 33.4727L28.0008 33.4906ZM28.0994 34.4947H28.2608C28.2428 34.3512 28.2339 34.1899 28.2339 34.0285V31.8231C28.2339 31.2404 28.4759 31.1866 28.6911 31.1866H28.7449V31.079C28.5566 31.079 28.3594 31.097 28.1711 31.097C27.947 31.097 27.7318 31.079 27.5167 31.079V31.1866H27.6063C27.7587 31.1866 28.0456 31.2494 28.0456 31.6617L28.0366 33.4996L28.0277 33.5085L28.0098 33.5265L25.8492 31.088C25.7057 31.088 25.5623 31.1059 25.4189 31.1059C25.2396 31.1059 25.0603 31.088 24.881 31.088V31.1956H24.9258C25.1499 31.1956 25.383 31.3659 25.383 31.6528V33.6968C25.383 34.0823 25.2754 34.3333 24.9258 34.3333H24.881V34.4319C25.0872 34.4319 25.3023 34.414 25.5175 34.414C25.7237 34.414 25.9209 34.4319 26.1271 34.4319V34.3333H26.0643C25.6789 34.3333 25.5892 34.163 25.5892 33.7416V31.6886L28.0994 34.4947ZM28.2787 34.5395L28.0815 34.5305L25.6161 31.7873V33.7327C25.6251 34.154 25.6878 34.2706 26.0554 34.2795H26.154V34.2975V34.4678H26.1361C25.9299 34.4678 25.7147 34.4499 25.5085 34.4499C25.2934 34.4499 25.0692 34.4678 24.8451 34.4678H24.8272V34.4499V34.2795H24.8451H24.9168C25.2396 34.2795 25.3292 34.0733 25.3292 33.6878V31.6438C25.3292 31.3838 25.1141 31.2314 24.9079 31.2314H24.8272V31.2135V31.0432H24.8451C25.0334 31.0432 25.2216 31.0611 25.4009 31.0611C25.5444 31.0611 25.6878 31.0432 25.8492 31.0521L27.9829 33.4547V31.6707C27.9829 31.2852 27.7229 31.2404 27.5794 31.2314H27.4629V31.2135V31.0432H27.4808C27.7139 31.0432 27.938 31.0611 28.1622 31.0611C28.3594 31.0611 28.5566 31.0432 28.7628 31.0432H28.7807V31.0611V31.2314H28.7628H28.6911C28.4939 31.2404 28.2877 31.2583 28.2787 31.8231V34.0285C28.2787 34.1988 28.2787 34.3692 28.3056 34.5126V34.5395H28.2787Z" fill="#1D1D1B"/>
<path d="M30.242 31.599H30.2331L29.7848 32.9706H30.6903L30.242 31.599ZM29.5338 33.7506C29.489 33.912 29.4262 34.0464 29.4262 34.1271C29.4262 34.2706 29.6324 34.2975 29.7938 34.2975H29.8476V34.4409C29.6503 34.4319 29.4531 34.423 29.2559 34.423C29.0855 34.423 28.9062 34.4319 28.7359 34.4409V34.2975H28.7628C28.9511 34.2975 29.1124 34.1899 29.1842 33.9837L29.9641 31.7604C30.0269 31.5811 30.1165 31.339 30.1434 31.1597C30.2958 31.1059 30.493 31.0073 30.5827 30.9535C30.6006 30.9445 30.6096 30.9445 30.6186 30.9445C30.6365 30.9445 30.6454 30.9445 30.6544 30.9625C30.6723 30.9983 30.6813 31.0432 30.6992 31.079L31.5957 33.6161C31.6495 33.7865 31.7123 33.9658 31.775 34.1092C31.8378 34.2437 31.9364 34.3064 32.0978 34.3064H32.1247V34.4499C31.9095 34.4409 31.6854 34.4319 31.4523 34.4319C31.2102 34.4319 30.9682 34.4409 30.7261 34.4499V34.3064H30.7799C30.8875 34.3064 31.0847 34.2885 31.0847 34.163C31.0847 34.1002 31.0399 33.9658 30.9861 33.8133L30.7979 33.2486H29.6952L29.5338 33.7506Z" fill="#1D1D1B"/>
<path d="M30.2241 31.608H30.2331H30.2241ZM29.8117 32.9527H30.6634L30.242 31.6528L29.8117 32.9527ZM29.7579 32.9975L30.2241 31.5811H30.242H30.251V31.599H30.242H30.251V31.5811H30.2689L30.7261 32.9975H29.7579ZM30.7441 34.423C30.9861 34.414 31.2192 34.405 31.4523 34.405C31.6764 34.405 31.8916 34.414 32.0978 34.423V34.3244H32.0888C31.9185 34.3244 31.8109 34.2616 31.7482 34.1182C31.6854 33.9747 31.6226 33.7954 31.5689 33.6251L30.6724 31.088C30.6544 31.0521 30.6455 31.0073 30.6275 30.9714C30.6186 30.9625 30.6275 30.9625 30.6186 30.9625H30.6096C30.6006 30.9625 30.5917 30.9625 30.5827 30.9714C30.4931 31.0342 30.2958 31.1239 30.1524 31.1687C30.1255 31.3569 30.0358 31.599 29.9731 31.7783L29.1931 34.0016C29.1214 34.2168 28.9511 34.3333 28.7538 34.3333H28.7449V34.4319C28.9152 34.423 29.0766 34.414 29.2469 34.414C29.4352 34.414 29.6234 34.423 29.8117 34.4319V34.3333H29.7938C29.6324 34.3333 29.4173 34.3154 29.4083 34.1451C29.4083 34.0464 29.471 33.9209 29.5159 33.7596L29.5338 33.7685L29.5159 33.7596L29.6772 33.2396H30.8068L31.0041 33.8134C31.0578 33.9658 31.1027 34.1002 31.1027 34.172C31.0937 34.3244 30.8875 34.3333 30.7799 34.3333H30.7441V34.423ZM32.1247 34.4678C31.9095 34.4588 31.6854 34.4499 31.4613 34.4499C31.2192 34.4499 30.9772 34.4588 30.7351 34.4678H30.7172V34.4499V34.2795H30.7351H30.7889C30.9054 34.2795 31.0668 34.2526 31.0668 34.163C31.0668 34.1092 31.022 33.9747 30.9682 33.8223L30.7799 33.2755H29.7041L29.5517 33.7685C29.5069 33.9299 29.4441 34.0644 29.4441 34.1361C29.4441 34.2526 29.6234 34.2795 29.7848 34.2795H29.8565V34.2975V34.4678H29.8386C29.6414 34.4588 29.4441 34.4499 29.2559 34.4499C29.0855 34.4499 28.9062 34.4588 28.7359 34.4678H28.709V34.4499V34.2795H28.7269H28.7538C28.9331 34.2795 29.0855 34.172 29.1573 33.9747L29.9372 31.7514C30 31.5721 30.0896 31.33 30.1255 31.1328C30.2779 31.079 30.4751 30.9804 30.5648 30.9266C30.5737 30.9177 30.5917 30.9177 30.6096 30.9177C30.6186 30.9177 30.6455 30.9177 30.6634 30.9446C30.6813 30.9804 30.6903 31.0252 30.7082 31.0701L31.6047 33.6072C31.6585 33.7775 31.7213 33.9568 31.784 34.1002C31.8378 34.2257 31.9275 34.2795 32.0888 34.2795H32.1336V34.2975V34.4678H32.1247Z" fill="#1D1D1B"/>
<path d="M32.3399 31.3032C31.9723 31.3032 31.9633 31.3928 31.8916 31.7424H31.7482C31.7661 31.608 31.793 31.4735 31.8109 31.33C31.8289 31.1956 31.8378 31.0611 31.8378 30.9177H31.9544C31.9902 31.0611 32.1157 31.0611 32.2412 31.0611H34.7425C34.877 31.0611 34.9935 31.0521 35.0025 30.9087L35.119 30.9266C35.1011 31.0611 35.0832 31.1866 35.0652 31.3211C35.0563 31.4556 35.0563 31.5811 35.0563 31.7155L34.9128 31.7693C34.9039 31.59 34.877 31.3032 34.5542 31.3032H33.7563V33.8851C33.7563 34.2616 33.9267 34.3064 34.1598 34.3064H34.2494V34.4499C34.0611 34.4499 33.7205 34.4319 33.4605 34.4319C33.1736 34.4319 32.8329 34.4499 32.6447 34.4499V34.3064H32.7343C33.0033 34.3064 33.1377 34.2795 33.1377 33.903V31.3121H32.3399V31.3032Z" fill="#1D1D1B"/>
<path d="M34.2494 34.4678C34.0611 34.4678 33.7205 34.4499 33.4605 34.4499C33.1736 34.4499 32.8329 34.4678 32.6447 34.4678H32.6267V34.4499V34.2795H32.6447H32.7343C33.0033 34.2706 33.1108 34.2706 33.1198 33.894V31.3211H32.3488V31.3031V31.2852H33.1646V33.894C33.1646 34.2795 33.0033 34.3244 32.7433 34.3244H32.6716V34.4319C32.8598 34.4319 33.1915 34.414 33.4694 34.414C33.7205 34.414 34.0432 34.4319 34.2404 34.4319V34.3244H34.1687C33.9356 34.3244 33.7474 34.2706 33.7474 33.8851V31.2852H34.5632C34.8859 31.2852 34.9307 31.5631 34.9397 31.7424L35.0473 31.7066C35.0473 31.5811 35.0473 31.4556 35.0562 31.33C35.0652 31.2045 35.0921 31.079 35.1011 30.9535L35.0294 30.9445C35.0114 31.088 34.868 31.097 34.7514 31.088H32.2502H32.2233C32.1068 31.088 31.9813 31.079 31.9454 30.9445H31.8647C31.8647 31.079 31.8557 31.2135 31.8378 31.339C31.8288 31.4735 31.802 31.599 31.784 31.7245H31.8916C31.9544 31.3838 31.9992 31.2763 32.3578 31.2852V31.3031V31.3211C31.9992 31.33 32.0081 31.3838 31.9275 31.7424V31.7604H31.9095H31.7392V31.7335C31.7571 31.599 31.784 31.4645 31.802 31.3211C31.8199 31.1866 31.8288 31.0521 31.8288 30.9087V30.8908H31.8468H31.9813V30.9087C32.0171 31.0342 32.1068 31.0342 32.2233 31.0342H32.2502H34.7514C34.8859 31.0342 34.9845 31.0342 34.9935 30.8997V30.8728H35.0204L35.1549 30.8908V30.9087C35.1369 31.0432 35.119 31.1687 35.1011 31.3031C35.0921 31.4287 35.0921 31.5631 35.0921 31.6976V31.7155L35.0742 31.7245L34.9038 31.7873V31.7604C34.8949 31.5811 34.868 31.3121 34.5632 31.3121H33.7922V33.8851C33.8011 34.2526 33.9446 34.2795 34.1777 34.2795H34.2942V34.2975V34.4678H34.2494V34.4678Z" fill="#1D1D1B"/>
<path d="M35.2893 34.2975H35.361C35.5403 34.2975 35.7196 34.2706 35.7196 34.0195V31.4825C35.7196 31.2314 35.5403 31.2045 35.361 31.2045H35.2893V31.0611C35.4776 31.0611 35.7734 31.079 36.0065 31.079C36.2486 31.079 36.5444 31.0611 36.7686 31.0611V31.2045H36.6968C36.5175 31.2045 36.3382 31.2314 36.3382 31.4825V34.0195C36.3382 34.2706 36.5265 34.2975 36.6968 34.2975H36.7686V34.4409C36.5355 34.4409 36.2396 34.423 35.9976 34.423C35.7555 34.423 35.4776 34.4409 35.2804 34.4409V34.2975H35.2893Z" fill="#1D1D1B"/>
<path d="M36.7506 34.423V34.3244H36.7058C36.5355 34.3244 36.3293 34.2975 36.3293 34.0285V31.4914C36.3293 31.2225 36.5355 31.1956 36.7058 31.1956H36.7506V31.088C36.5265 31.088 36.2486 31.1059 36.0066 31.1059C35.7735 31.1059 35.4955 31.088 35.3073 31.088V31.1956H35.3521C35.5224 31.1956 35.7286 31.2225 35.7286 31.4914V34.0285C35.7286 34.2975 35.5224 34.3244 35.3521 34.3244H35.3073V34.423C35.4955 34.423 35.7645 34.405 35.9976 34.405C36.2396 34.405 36.5265 34.423 36.7506 34.423ZM36.7775 34.4678C36.5445 34.4678 36.2486 34.4499 36.0066 34.4499C35.7735 34.4499 35.4866 34.4678 35.2894 34.4678H35.2714V34.4499V34.3064V34.2885H35.2894H35.3611C35.5404 34.2885 35.6928 34.2706 35.7017 34.0285V31.4914C35.7017 31.2583 35.5404 31.2404 35.3611 31.2314H35.2714V31.2135V31.0432H35.2894C35.4776 31.0432 35.7735 31.0611 36.0066 31.0611C36.2486 31.0611 36.5355 31.0432 36.7686 31.0432H36.7865V31.0611V31.2314H36.7686H36.6969C36.5176 31.2314 36.3562 31.2494 36.3562 31.4914V34.0285C36.3562 34.2616 36.5176 34.2795 36.6969 34.2885H36.7865V34.3064V34.4768H36.7775V34.4678Z" fill="#1D1D1B"/>
<path d="M38.7767 34.3064C39.718 34.3064 39.8794 33.4727 39.8794 32.7734C39.8794 32.0652 39.4939 31.2045 38.6871 31.2045C37.8354 31.2045 37.5844 31.9576 37.5844 32.612C37.5933 33.4727 37.9968 34.3064 38.7767 34.3064ZM38.705 30.9894C39.736 30.9894 40.5608 31.6259 40.5608 32.6658C40.5608 33.7775 39.7629 34.5216 38.7319 34.5216C37.7009 34.5216 36.921 33.8223 36.921 32.7824C36.921 31.7693 37.7009 30.9894 38.705 30.9894Z" fill="#1D1D1B"/>
<path d="M37.5754 32.6031C37.5754 31.9486 37.8354 31.1776 38.696 31.1776C39.5208 31.1776 39.9063 32.0562 39.9063 32.7644C39.9063 33.4727 39.736 34.3244 38.7767 34.3244V34.3064V34.2885C39.7001 34.2885 39.8615 33.4816 39.8615 32.7734C39.8615 32.0741 39.485 31.2314 38.696 31.2314C37.8623 31.2314 37.6202 31.9666 37.6202 32.621C37.6202 33.4816 38.0147 34.2975 38.7857 34.2975V34.3154V34.3333C37.9788 34.3244 37.5754 33.4816 37.5754 32.6031ZM36.8941 32.7734C36.8941 31.7514 37.683 30.9625 38.705 30.9625V30.9804V30.9983C37.7099 30.9983 36.9389 31.7693 36.9389 32.7644C36.9389 33.7954 37.7189 34.4857 38.7319 34.4857C39.7539 34.4857 40.5428 33.7506 40.5428 32.6479C40.5428 31.6259 39.727 30.9983 38.705 30.9983V30.9804V30.9625C39.7449 30.9625 40.5787 31.608 40.5877 32.6569C40.5877 33.7865 39.7808 34.5306 38.7319 34.5395C37.692 34.5395 36.903 33.8313 36.8941 32.7734Z" fill="#1D1D1B"/>
<path d="M43.833 33.4906L43.842 33.4816V31.6617C43.842 31.2673 43.564 31.2045 43.4206 31.2045H43.313V31.0611C43.5371 31.0611 43.7613 31.079 43.9944 31.079C44.1916 31.079 44.3888 31.0611 44.595 31.0611V31.2045H44.5233C44.3171 31.2045 44.093 31.2404 44.093 31.8231V34.0285C44.093 34.1988 44.1019 34.3692 44.1199 34.5216H43.9316L41.4304 31.7335V33.7327C41.4304 34.154 41.5111 34.2975 41.8876 34.2975H41.9683V34.4409C41.7621 34.4409 41.5469 34.423 41.3407 34.423C41.1256 34.423 40.9014 34.4409 40.6773 34.4409V34.2975H40.749C41.0807 34.2975 41.1883 34.0733 41.1883 33.6789V31.6349C41.1883 31.3659 40.9642 31.1956 40.749 31.1956H40.6863V31.0521C40.8745 31.0521 41.0628 31.0701 41.2421 31.0701C41.3855 31.0701 41.529 31.0521 41.6724 31.0521L43.833 33.4906Z" fill="#1D1D1B"/>
<path d="M43.833 33.4906L43.8509 33.4727L43.833 33.4906ZM43.9316 34.4947H44.093C44.075 34.3512 44.0661 34.1899 44.0661 34.0285V31.8231C44.0661 31.2404 44.3081 31.1866 44.5233 31.1866H44.5771V31.079C44.3888 31.079 44.1916 31.097 44.0033 31.097C43.7792 31.097 43.564 31.079 43.3489 31.079V31.1866H43.4385C43.5909 31.1866 43.8778 31.2583 43.8778 31.6617L43.8688 33.4996L43.8599 33.5085L43.8419 33.5265L41.6814 31.088C41.5379 31.088 41.3945 31.1059 41.2511 31.1059C41.0718 31.1059 40.8925 31.088 40.7132 31.088V31.1956H40.758C40.9821 31.1956 41.2242 31.3659 41.2242 31.6528V33.6968C41.2242 34.0823 41.1166 34.3333 40.767 34.3333H40.7221V34.4319C40.9283 34.4319 41.1524 34.414 41.3586 34.414C41.5648 34.414 41.7621 34.4319 41.9593 34.4319V34.3333H41.8965C41.52 34.3333 41.4214 34.163 41.4214 33.7416V31.6886L43.9316 34.4947ZM44.1199 34.5395L43.9226 34.5305L41.4573 31.7873V33.7327C41.4662 34.154 41.529 34.2706 41.8876 34.2795H41.9952V34.2975V34.4678H41.9772C41.771 34.4678 41.5559 34.4499 41.3497 34.4499C41.1345 34.4499 40.9104 34.4678 40.6863 34.4678H40.6683V34.4499V34.2795H40.6863H40.758C41.0807 34.2795 41.1704 34.0733 41.1704 33.6878V31.6438C41.1704 31.3838 40.9552 31.2314 40.749 31.2314H40.6683V31.2135V31.0432H40.6863C40.8745 31.0432 41.0628 31.0611 41.2421 31.0611C41.3855 31.0611 41.529 31.0432 41.6903 31.0521L43.824 33.4547V31.6707C43.824 31.2852 43.564 31.2404 43.4206 31.2314H43.2951V31.2135V31.0432H43.313C43.5371 31.0432 43.7613 31.0611 43.9944 31.0611C44.1916 31.0611 44.3888 31.0432 44.595 31.0432H44.6129V31.0611V31.2314H44.595H44.5233C44.3261 31.2404 44.1199 31.2583 44.1109 31.8231V34.0285C44.1109 34.1988 44.1109 34.3692 44.1378 34.5126V34.5395H44.1199Z" fill="#1D1D1B"/>
<path d="M46.0832 31.599H46.0742L45.626 32.9706H46.5315L46.0832 31.599ZM45.375 33.7506C45.3301 33.912 45.2674 34.0464 45.2674 34.1271C45.2674 34.2706 45.4736 34.2975 45.635 34.2975H45.6887V34.4409C45.4915 34.4319 45.2943 34.423 45.0971 34.423C44.9267 34.423 44.7474 34.4319 44.5771 34.4409V34.2975H44.604C44.7922 34.2975 44.9536 34.1899 45.0253 33.9837L45.8053 31.7604C45.868 31.5811 45.9577 31.339 45.9846 31.1597C46.137 31.1059 46.3342 31.0073 46.4239 30.9535C46.4418 30.9445 46.4508 30.9445 46.4597 30.9445C46.4777 30.9445 46.4866 30.9445 46.4956 30.9625C46.5135 30.9983 46.5225 31.0432 46.5404 31.079L47.4369 33.6161C47.4907 33.7865 47.5535 33.9658 47.6162 34.1092C47.67 34.2437 47.7776 34.3064 47.939 34.3064H47.9659V34.4499C47.7507 34.4409 47.5266 34.4319 47.2935 34.4319C47.0604 34.4319 46.8094 34.4409 46.5673 34.4499V34.3064H46.6211C46.7287 34.3064 46.9259 34.2885 46.9259 34.163C46.9259 34.1002 46.8811 33.9658 46.8273 33.8133L46.639 33.2486H45.5363L45.375 33.7506Z" fill="#1D1D1B"/>
<path d="M46.0563 31.608H46.0653H46.0563ZM45.6439 32.9527H46.4956L46.0742 31.6528L45.6439 32.9527ZM45.5901 32.9975L46.0563 31.5811H46.0742H46.0832V31.599H46.0742H46.0832V31.5811H46.1011L46.5583 32.9975H45.5901ZM46.5763 34.423C46.8183 34.414 47.0514 34.405 47.2845 34.405C47.5086 34.405 47.7238 34.414 47.93 34.423V34.3244H47.921C47.7596 34.3244 47.6431 34.2616 47.5803 34.1182C47.5176 33.9747 47.4548 33.7954 47.401 33.6251L46.5045 31.088C46.4866 31.0521 46.4777 31.0073 46.4597 30.9714C46.4597 30.9625 46.4597 30.9625 46.4508 30.9625H46.4418C46.4328 30.9625 46.4239 30.9625 46.4149 30.9714C46.3163 31.0342 46.128 31.1239 45.9846 31.1687C45.9577 31.3569 45.868 31.599 45.8053 31.7783L45.0253 34.0016C44.9536 34.2168 44.7833 34.3333 44.586 34.3333H44.5771V34.4319C44.7474 34.423 44.9088 34.414 45.0791 34.414C45.2674 34.414 45.4556 34.423 45.6439 34.4319V34.3333H45.608C45.4467 34.3333 45.2315 34.3154 45.2226 34.1451C45.2226 34.0464 45.2853 33.9299 45.3301 33.7596L45.3481 33.7685L45.3301 33.7596L45.4915 33.2396H46.6211L46.8183 33.8134C46.8721 33.9658 46.9169 34.1002 46.9169 34.172C46.908 34.3244 46.7018 34.3333 46.5942 34.3333H46.5583V34.423H46.5763ZM47.9569 34.4678C47.7417 34.4588 47.5176 34.4499 47.2935 34.4499C47.0604 34.4499 46.8094 34.4588 46.5673 34.4678H46.5494V34.4499V34.2795H46.5673H46.6211C46.7376 34.2795 46.899 34.2526 46.899 34.163C46.899 34.1092 46.8542 33.9747 46.8004 33.8223L46.6121 33.2755H45.5453L45.3929 33.7685C45.3481 33.9389 45.2853 34.0644 45.2853 34.1361C45.2853 34.2526 45.4646 34.2885 45.626 34.2885H45.6977V34.3064V34.4768H45.6798C45.4825 34.4678 45.2853 34.4588 45.097 34.4588C44.9267 34.4588 44.7474 34.4678 44.5771 34.4768H44.5591V34.4588V34.2885H44.5771H44.604C44.7833 34.2885 44.9357 34.1809 45.0074 33.9837L45.7873 31.7604C45.8501 31.5811 45.9398 31.339 45.9756 31.1507C46.128 31.097 46.3252 30.9983 46.4149 30.9446C46.4239 30.9356 46.4418 30.9356 46.4597 30.9356C46.4687 30.9356 46.4956 30.9356 46.5135 30.9625C46.5314 30.9983 46.5404 31.0432 46.5583 31.088L47.4548 33.6251C47.5176 33.7954 47.5714 33.9747 47.6341 34.1182C47.6879 34.2437 47.7776 34.2975 47.93 34.2975H47.9838V34.3154V34.4857L47.9569 34.4678Z" fill="#1D1D1B"/>
<path d="M49.1761 33.9658C49.1761 34.163 49.3106 34.2168 49.463 34.2347C49.6602 34.2526 49.8844 34.2526 50.0995 34.2257C50.3057 34.1988 50.4761 34.0823 50.5657 33.9658C50.6464 33.8582 50.6822 33.7237 50.7181 33.6161H50.8615C50.8078 33.894 50.736 34.163 50.6822 34.4409C50.2519 34.4409 49.8306 34.423 49.4003 34.423C48.9699 34.423 48.5486 34.4409 48.1183 34.4409V34.2975H48.181C48.3603 34.2975 48.5486 34.2706 48.5486 33.9747V31.4825C48.5486 31.2314 48.3603 31.2045 48.181 31.2045H48.1183V31.0611C48.3782 31.0611 48.6293 31.079 48.8803 31.079C49.1313 31.079 49.3734 31.0611 49.6154 31.0611V31.2045H49.4899C49.3016 31.2045 49.1582 31.2135 49.1582 31.4645V33.9658H49.1761Z" fill="#1D1D1B"/>
<path d="M50.6733 34.423C50.7271 34.163 50.7898 33.903 50.8436 33.643H50.745C50.7181 33.7506 50.6733 33.8761 50.5926 33.9837C50.5029 34.1092 50.3236 34.2257 50.1085 34.2526C49.983 34.2616 49.8575 34.2706 49.7409 34.2706C49.6513 34.2706 49.5527 34.2706 49.472 34.2616C49.3106 34.2437 49.1582 34.1809 49.1582 33.9658V31.4645C49.1582 31.1956 49.3285 31.1776 49.5078 31.1776H49.6064V31.0701C49.3644 31.0701 49.1313 31.088 48.8892 31.088C48.6382 31.088 48.3962 31.0701 48.1451 31.0701V31.1776H48.19C48.3603 31.1776 48.5755 31.2045 48.5755 31.4735V33.9747C48.5755 34.2885 48.3603 34.3244 48.19 34.3244H48.1451V34.423C48.5665 34.423 48.9879 34.405 49.4092 34.405C49.8306 34.405 50.2519 34.423 50.6733 34.423ZM50.6912 34.4678C50.2609 34.4678 49.8395 34.4499 49.4092 34.4499C48.9789 34.4499 48.5575 34.4678 48.1272 34.4678H48.1093V34.4499V34.2795H48.1272H48.1989C48.3782 34.2795 48.5396 34.2616 48.5396 33.9747V31.4824C48.5396 31.2494 48.3693 31.2314 48.1989 31.2314H48.1093V31.2135V31.0432H48.1272C48.3872 31.0432 48.6382 31.0611 48.8982 31.0611C49.1492 31.0611 49.3823 31.0432 49.6333 31.0432H49.6513V31.0611V31.2314H49.6333H49.5078C49.3196 31.2404 49.203 31.2314 49.203 31.4735V33.9747C49.203 34.154 49.3196 34.2078 49.472 34.2257C49.5616 34.2347 49.6513 34.2347 49.7409 34.2347C49.8575 34.2347 49.983 34.2257 50.1085 34.2168C50.3057 34.1899 50.476 34.0823 50.5567 33.9658C50.6285 33.8582 50.6733 33.7327 50.7002 33.6251V33.6072H50.7181H50.8884V33.634C50.8346 33.912 50.7629 34.1809 50.7091 34.4588V34.4768H50.6912V34.4678Z" fill="#1D1D1B"/>
<path d="M50.7271 31.4287H50.7898C50.8526 31.4287 50.8884 31.3749 50.8884 31.2942C50.8884 31.2135 50.8436 31.1866 50.7898 31.1866H50.736V31.4287H50.7271ZM50.5567 31.6976V31.6707C50.6195 31.6618 50.6285 31.6618 50.6285 31.6259V31.2494C50.6285 31.1956 50.6195 31.1776 50.5567 31.1776V31.1507H50.8167C50.9064 31.1507 50.9871 31.1956 50.9871 31.2852C50.9871 31.3569 50.9333 31.4197 50.8705 31.4376L50.9512 31.5542C50.9871 31.608 51.0319 31.6528 51.0677 31.6707V31.6886H50.9691C50.9243 31.6886 50.8795 31.59 50.7898 31.4556H50.736V31.6259C50.736 31.6618 50.745 31.6618 50.8078 31.6707V31.6976H50.5567V31.6976ZM50.8078 31.85C51.0408 31.85 51.2112 31.6528 51.2112 31.4376C51.2112 31.2135 51.0408 31.0252 50.8078 31.0252C50.5747 31.0252 50.4043 31.2225 50.4043 31.4376C50.4043 31.6528 50.5747 31.85 50.8078 31.85ZM50.8078 30.9177C51.1036 30.9177 51.3188 31.1418 51.3188 31.4287C51.3188 31.7155 51.1036 31.9397 50.8078 31.9397C50.5119 31.9397 50.2968 31.7155 50.2968 31.4287C50.2968 31.1418 50.5119 30.9177 50.8078 30.9177Z" fill="#1D1D1B"/>
<path d="M20.5061 13.9289C20.5061 9.39265 24.1817 5.717 28.718 5.717C33.2543 5.717 36.93 9.39265 36.93 13.9289C36.93 18.4652 33.2543 22.1409 28.718 22.1409C24.1907 22.1499 20.5061 18.4742 20.5061 13.9289Z" fill="white"/>
<path d="M28.7359 22.2933C24.0293 22.3112 20.1564 18.5011 20.1564 13.8572C20.1564 8.78304 24.0293 5.26876 28.7359 5.27773H30.9413C35.5942 5.27773 39.8436 8.78304 39.8436 13.8572C39.8436 18.5011 35.5942 22.2933 30.9413 22.2933H28.7359ZM28.7539 5.977C24.4507 5.977 20.9633 9.46438 20.9633 13.7676C20.9633 18.0708 24.4507 21.5582 28.7539 21.5582C33.0571 21.5582 36.5445 18.0708 36.5445 13.7676C36.5445 9.46438 33.0571 5.98596 28.7539 5.977ZM26.9878 18.3756V9.15957C25.132 9.87677 23.8231 11.6608 23.8142 13.7676C23.8231 15.8744 25.132 17.6674 26.9878 18.3756ZM33.6936 13.7676C33.6936 11.6608 32.3757 9.86781 30.52 9.15957V18.3756C32.3757 17.6674 33.6936 15.8744 33.6936 13.7676Z" fill="#004A98"/>
</svg>
