<svg width="60" height="40" viewBox="0 0 60 40" fill="none" xmlns="http://www.w3.org/2000/svg">
    <rect x="0.5" y="0.5" width="59" height="39" rx="3.5" fill="white" stroke="#DDDDDD"/>
    <path d="M19.6462 32.8322V31.0749C19.6565 30.9271 19.6351 30.7788 19.5836 30.6399C19.5321 30.501 19.4515 30.3747 19.3473 30.2694C19.2431 30.164 19.1177 30.0822 18.9793 30.0292C18.8409 29.9762 18.6929 29.9533 18.545 29.962C18.3514 29.9494 18.158 29.9889 17.9849 30.0765C17.8119 30.1641 17.6654 30.2965 17.5609 30.4599C17.4657 30.3013 17.3295 30.1714 17.1666 30.0838C17.0037 29.9962 16.8202 29.9541 16.6355 29.962C16.4744 29.9539 16.314 29.988 16.1702 30.061C16.0264 30.1339 15.9041 30.2432 15.8154 30.3779V30.0323H15.2062V32.8322H15.8213V31.2799C15.808 31.1841 15.816 31.0866 15.8449 30.9943C15.8738 30.902 15.9228 30.8173 15.9883 30.7461C16.0538 30.675 16.1343 30.6193 16.2239 30.583C16.3135 30.5466 16.41 30.5306 16.5066 30.536C16.9108 30.536 17.1158 30.7996 17.1158 31.2741V32.8322H17.7308V31.2799C17.7185 31.1843 17.7273 31.0872 17.7565 30.9953C17.7858 30.9035 17.8348 30.8191 17.9001 30.7482C17.9654 30.6774 18.0455 30.6216 18.1346 30.585C18.2238 30.5483 18.3198 30.5316 18.4161 30.536C18.832 30.536 19.0311 30.7996 19.0311 31.2741V32.8322H19.6462ZM28.7486 30.0323H27.7528V29.183H27.1378V30.0323H26.5696V30.5888H27.1378V31.8657C27.1378 32.5158 27.3897 32.9025 28.1101 32.9025C28.3793 32.9033 28.6432 32.8281 28.8716 32.6857L28.6959 32.1644C28.5325 32.2619 28.3471 32.3163 28.157 32.3226C27.8524 32.3226 27.7528 32.1351 27.7528 31.854V30.5888H28.7486V30.0323ZM33.9441 29.962C33.7956 29.9576 33.6486 29.9934 33.5188 30.0656C33.3889 30.1377 33.2809 30.2436 33.2061 30.372V30.0323H32.6028V32.8322H33.2119V31.2623C33.2119 30.7996 33.4111 30.5419 33.8094 30.5419C33.9397 30.5401 34.0691 30.564 34.1901 30.6122L34.3776 30.0381C34.2385 29.9884 34.0919 29.9626 33.9441 29.962ZM26.0893 30.2549C25.7445 30.0498 25.3481 29.9482 24.9471 29.962C24.2384 29.962 23.7815 30.3017 23.7815 30.8582C23.7815 31.3151 24.1212 31.5963 24.748 31.6841L25.035 31.7251C25.3688 31.7719 25.527 31.8598 25.527 32.0179C25.527 32.2347 25.3044 32.3577 24.8886 32.3577C24.554 32.3673 24.226 32.2642 23.9572 32.0648L23.6702 32.5393C24.025 32.7871 24.4501 32.9144 24.8827 32.9025C25.691 32.9025 26.1596 32.5217 26.1596 31.9887C26.1596 31.4966 25.7906 31.2389 25.1814 31.151L24.8944 31.11C24.6308 31.0749 24.42 31.0222 24.42 30.8348C24.42 30.6298 24.6191 30.5067 24.953 30.5067C25.2596 30.5114 25.56 30.594 25.8258 30.7469L26.0893 30.2549ZM42.4081 29.962C42.2596 29.9576 42.1126 29.9934 41.9827 30.0656C41.8528 30.1377 41.7448 30.2436 41.6701 30.372V30.0323H41.0668V32.8322H41.6759V31.2623C41.6759 30.7996 41.8751 30.5419 42.2733 30.5419C42.4037 30.5401 42.533 30.564 42.6541 30.6122L42.8416 30.0381C42.7024 29.9884 42.5558 29.9626 42.4081 29.962ZM34.5591 31.4322C34.551 31.6294 34.5843 31.8262 34.6568 32.0098C34.7294 32.1934 34.8395 32.3598 34.9802 32.4983C35.1209 32.6368 35.289 32.7443 35.4737 32.8139C35.6585 32.8835 35.8557 32.9137 36.0528 32.9025C36.4185 32.9208 36.7779 32.8017 37.0603 32.5685L36.7674 32.0765C36.5568 32.2371 36.3 32.3254 36.0352 32.3284C35.8069 32.3145 35.5926 32.2141 35.4358 32.0475C35.2791 31.881 35.1918 31.6609 35.1918 31.4322C35.1918 31.2035 35.2791 30.9834 35.4358 30.8169C35.5926 30.6503 35.8069 30.5499 36.0352 30.536C36.3 30.539 36.5568 30.6274 36.7674 30.7879L37.0603 30.2959C36.7779 30.0627 36.4185 29.9437 36.0528 29.962C35.8557 29.9508 35.6585 29.981 35.4738 30.0506C35.289 30.1202 35.1209 30.2277 34.9802 30.3661C34.8395 30.5046 34.7294 30.671 34.6569 30.8546C34.5843 31.0382 34.551 31.2349 34.5591 31.4322ZM40.2643 31.4322V30.0323H39.6551V30.372C39.5511 30.238 39.4166 30.1309 39.2627 30.0596C39.1088 29.9882 38.9401 29.9548 38.7706 29.962C38.3932 29.9805 38.0373 30.1435 37.7767 30.4172C37.5161 30.6909 37.3707 31.0543 37.3707 31.4322C37.3707 31.8102 37.5161 32.1736 37.7767 32.4473C38.0373 32.721 38.3932 32.884 38.7706 32.9025C38.9401 32.9097 39.1088 32.8762 39.2627 32.8049C39.4166 32.7335 39.5511 32.6264 39.6551 32.4924V32.8322H40.2643V31.4322ZM37.9974 31.4322C38.0069 31.2669 38.0645 31.1081 38.1631 30.9752C38.2618 30.8424 38.3971 30.7413 38.5526 30.6844C38.708 30.6276 38.8766 30.6174 39.0377 30.6553C39.1988 30.6931 39.3453 30.7773 39.4592 30.8974C39.573 31.0175 39.6492 31.1683 39.6784 31.3312C39.7075 31.4941 39.6884 31.662 39.6233 31.8141C39.5582 31.9663 39.4499 32.096 39.312 32.1874C39.174 32.2788 39.0123 32.3278 38.8468 32.3284C38.7308 32.33 38.6157 32.3075 38.5089 32.2624C38.402 32.2173 38.3056 32.1505 38.2258 32.0663C38.146 31.9821 38.0845 31.8823 38.0452 31.7732C38.0059 31.664 37.9896 31.5479 37.9974 31.4322ZM30.6464 29.962C30.2665 29.982 29.9092 30.1484 29.6493 30.4262C29.3894 30.7039 29.2472 31.0716 29.2525 31.452C29.2578 31.8323 29.4102 32.1959 29.6777 32.4663C29.9452 32.7368 30.3071 32.8931 30.6874 32.9025C31.1053 32.9171 31.514 32.7774 31.8355 32.51L31.5367 32.059C31.3054 32.2443 31.0189 32.3474 30.7225 32.3518C30.5213 32.3688 30.3213 32.3067 30.1649 32.1788C30.0086 32.0509 29.9082 31.8671 29.8849 31.6665H31.9643C31.9702 31.5904 31.976 31.5142 31.976 31.4322C31.9702 30.5595 31.4313 29.962 30.6464 29.962ZM30.6347 30.5067C30.8187 30.5032 30.9966 30.5727 31.1294 30.7C31.2623 30.8274 31.3392 31.0022 31.3434 31.1862H29.8908C29.9015 30.9982 29.9853 30.8219 30.1243 30.6949C30.2633 30.568 30.4465 30.5004 30.6347 30.5067ZM45.9167 31.4322V28.9077H45.3075V30.372C45.2035 30.238 45.069 30.1309 44.9151 30.0596C44.7612 29.9882 44.5925 29.9548 44.423 29.962C44.0456 29.9805 43.6897 30.1435 43.4291 30.4172C43.1684 30.6909 43.0231 31.0543 43.0231 31.4322C43.0231 31.8102 43.1684 32.1736 43.4291 32.4473C43.6897 32.721 44.0456 32.884 44.423 32.9025C44.5925 32.9097 44.7612 32.8762 44.9151 32.8049C45.069 32.7335 45.2035 32.6264 45.3075 32.4924V32.8322H45.9167V31.4322ZM46.9321 32.4264C46.97 32.4261 47.0075 32.4336 47.0423 32.4482C47.0759 32.4622 47.1064 32.4825 47.1324 32.5079C47.1581 32.5333 47.1787 32.5634 47.193 32.5966C47.2077 32.6307 47.2152 32.6674 47.2152 32.7045C47.2152 32.7416 47.2077 32.7784 47.193 32.8125C47.1786 32.8455 47.158 32.8755 47.1324 32.9008C47.1064 32.9262 47.0758 32.9466 47.0423 32.9608C47.0075 32.9757 46.97 32.9832 46.9321 32.983C46.8764 32.9835 46.8218 32.9677 46.775 32.9373C46.7282 32.907 46.6914 32.8636 46.6692 32.8125C46.6546 32.7784 46.6471 32.7416 46.6471 32.7045C46.6471 32.6674 46.6546 32.6307 46.6692 32.5966C46.6835 32.5634 46.704 32.5333 46.7296 32.5079C46.7555 32.4823 46.7862 32.462 46.82 32.4482C46.8555 32.4335 46.8937 32.4261 46.9321 32.4264ZM46.9321 32.9216C46.961 32.9218 46.9896 32.916 47.0161 32.9045C47.0415 32.8935 47.0646 32.8778 47.0843 32.8581C47.1247 32.8173 47.1474 32.7621 47.1474 32.7047C47.1474 32.6472 47.1247 32.592 47.0843 32.5512C47.0647 32.5316 47.0415 32.516 47.0161 32.5052C46.9896 32.4939 46.961 32.4882 46.9321 32.4885C46.9028 32.4882 46.8737 32.4939 46.8466 32.5052C46.8207 32.5158 46.7972 32.5315 46.7773 32.5512C46.7369 32.592 46.7142 32.6472 46.7142 32.7047C46.7142 32.7621 46.7369 32.8173 46.7773 32.8581C46.7972 32.8779 46.8207 32.8937 46.8466 32.9045C46.8736 32.916 46.9027 32.9218 46.9321 32.9216ZM46.9485 32.5744C46.9759 32.5726 47.0031 32.5804 47.0253 32.5966C47.0341 32.6039 47.0412 32.6131 47.0458 32.6236C47.0505 32.6341 47.0527 32.6455 47.0522 32.6569C47.0525 32.6668 47.0508 32.6765 47.0471 32.6856C47.0434 32.6947 47.0378 32.7029 47.0307 32.7098C47.0138 32.7248 46.9923 32.7338 46.9697 32.7354L47.0543 32.8329H46.9881L46.9097 32.736H46.8844V32.8329H46.8292V32.5744H46.9485ZM46.8844 32.6228V32.6917H46.9479C46.9601 32.6923 46.9722 32.6894 46.9827 32.6832C46.9869 32.6803 46.9904 32.6764 46.9926 32.6718C46.9949 32.6672 46.9959 32.6621 46.9956 32.6569C46.9959 32.6519 46.9948 32.6469 46.9926 32.6424C46.9903 32.6379 46.9869 32.6341 46.9827 32.6313C46.9721 32.6252 46.96 32.6222 46.9479 32.6228H46.8844ZM43.6499 31.4322C43.6593 31.267 43.7169 31.1081 43.8156 30.9753C43.9142 30.8424 44.0496 30.7413 44.205 30.6845C44.3604 30.6276 44.5291 30.6175 44.6902 30.6554C44.8513 30.6932 44.9978 30.7774 45.1116 30.8975C45.2254 31.0176 45.3016 31.1684 45.3307 31.3313C45.3599 31.4942 45.3407 31.6621 45.2756 31.8142C45.2105 31.9663 45.1023 32.0961 44.9643 32.1875C44.8263 32.2788 44.6646 32.3278 44.4992 32.3284C44.3832 32.3299 44.2681 32.3075 44.1613 32.2624C44.0544 32.2173 43.958 32.1505 43.8782 32.0663C43.7984 31.9821 43.7369 31.8823 43.6976 31.7731C43.6583 31.664 43.6421 31.5479 43.6499 31.4322ZM23.0786 31.4322V30.0323H22.4694V30.372C22.3654 30.238 22.2309 30.1309 22.077 30.0596C21.9231 29.9882 21.7544 29.9548 21.585 29.962C21.2075 29.9805 20.8516 30.1435 20.591 30.4172C20.3304 30.6909 20.1851 31.0543 20.1851 31.4322C20.1851 31.8102 20.3304 32.1736 20.591 32.4473C20.8516 32.721 21.2075 32.884 21.585 32.9025C21.7544 32.9097 21.9231 32.8762 22.077 32.8049C22.2309 32.7335 22.3655 32.6264 22.4694 32.4924V32.8322H23.0786V31.4322ZM20.8118 31.4322C20.8213 31.267 20.8789 31.1081 20.9775 30.9753C21.0762 30.8424 21.2116 30.7413 21.367 30.6845C21.5224 30.6276 21.691 30.6175 21.8521 30.6554C22.0132 30.6932 22.1597 30.7774 22.2735 30.8975C22.3874 31.0176 22.4635 31.1684 22.4927 31.3313C22.5218 31.4942 22.5027 31.6621 22.4376 31.8142C22.3724 31.9663 22.2642 32.0961 22.1263 32.1875C21.9883 32.2788 21.8266 32.3278 21.6611 32.3284C21.5451 32.3299 21.4301 32.3075 21.3232 32.2624C21.2163 32.2173 21.12 32.1505 21.0402 32.0663C20.9604 31.9821 20.8989 31.8823 20.8596 31.7731C20.8203 31.664 20.804 31.5479 20.8118 31.4322Z"
          fill="#231F20"/>
    <path d="M35.1135 8.69385H25.8868V25.2745H35.1135V8.69385Z" fill="#FF5F00"/>
    <path d="M26.4726 16.9833C26.4711 15.3864 26.833 13.8102 27.5308 12.3739C28.2285 10.9376 29.2439 9.67883 30.5001 8.69296C28.9445 7.47024 27.0763 6.70985 25.109 6.4987C23.1417 6.28755 21.1547 6.63416 19.3751 7.4989C17.5955 8.36365 16.095 9.71165 15.0453 11.3888C13.9956 13.066 13.4389 15.0047 13.4389 16.9833C13.4389 18.9619 13.9956 20.9005 15.0453 22.5777C16.095 24.2549 17.5955 25.6029 19.3751 26.4676C21.1547 27.3324 23.1417 27.679 25.109 27.4678C27.0763 27.2567 28.9445 26.4963 30.5001 25.2736C29.2439 24.2877 28.2285 23.029 27.5308 21.5927C26.833 20.1563 26.4711 18.5801 26.4726 16.9833Z"
          fill="#EB001B"/>
    <path d="M47.5608 16.9833C47.5609 18.9618 47.0043 20.9005 45.9546 22.5777C44.905 24.2549 43.4046 25.6029 41.625 26.4676C39.8454 27.3324 37.8584 27.679 35.8912 27.4678C33.9239 27.2567 32.0557 26.4963 30.5002 25.2736C31.7552 24.2867 32.7698 23.0278 33.4675 21.5917C34.1652 20.1556 34.5276 18.5798 34.5276 16.9833C34.5276 15.3867 34.1652 13.8109 33.4675 12.3749C32.7698 10.9388 31.7552 9.67983 30.5002 8.69295C32.0557 7.47024 33.9239 6.70985 35.8912 6.4987C37.8584 6.28755 39.8454 6.63416 41.625 7.49892C43.4046 8.36368 44.905 9.71168 45.9546 11.3889C47.0043 13.066 47.5609 15.0047 47.5608 16.9833Z"
          fill="#F79E1B"/>
    <path d="M46.5548 23.5196V23.1802H46.6917V23.111H46.3431V23.1802H46.4801V23.5196H46.5548ZM47.2316 23.5196V23.1104H47.1248L47.0019 23.3919L46.8789 23.1104H46.772V23.5196H46.8475V23.2109L46.9627 23.4771H47.041L47.1562 23.2102V23.5196H47.2316Z"
          fill="#F79E1B"/>
</svg>
