<svg width="60" height="40" viewBox="0 0 60 40" fill="none" xmlns="http://www.w3.org/2000/svg">
    <rect x="0.5" y="0.5" width="59" height="39" rx="3.5" fill="white" stroke="#DDDDDD"/>
    <path fill-rule="evenodd" clip-rule="evenodd"
          d="M47.9636 12.2426C46.9745 12.2426 46.2592 12.5449 45.825 13.5253L39.7053 27.3023H44.077L44.9268 24.9945H50.1494L50.6359 27.3023H54.5212L51.1211 12.2426H47.9636ZM37.2221 12C38.8233 12 40.1047 12.3272 40.9233 12.632L40.3634 15.8965L39.9939 15.7223C39.2313 15.4175 38.2535 15.1251 36.9024 15.1451C35.2863 15.1451 34.5374 15.8144 34.5374 16.4414C34.5287 17.1468 35.412 17.6108 36.8564 18.3075C39.2388 19.3837 40.3386 20.6862 40.3236 22.3993C40.2913 25.5257 37.4734 27.5449 33.1316 27.5449C31.2804 27.5275 29.4963 27.1629 28.5322 26.7424L29.1107 23.3697L29.6431 23.6098C31.0004 24.1722 31.8788 24.3998 33.5309 24.3998C34.7178 24.3998 35.9917 23.9383 36.0017 22.9293C36.0091 22.2712 35.4692 21.7997 33.8606 21.0607C32.2955 20.3416 30.2204 19.1336 30.2428 16.9701C30.2677 14.0428 33.1415 12 37.2221 12ZM28.7748 12.2426L26.2244 27.3023H22.0953L24.6456 12.2426H28.7748ZM23.0669 12.2426L16.5093 27.3023H12.1363L8.48743 14.1859C11.1087 15.4909 13.4488 18.0948 14.2015 20.5009L14.5648 22.566L18.6939 12.2426H23.0669ZM48.2796 16.3356L48.5595 17.6332C48.5595 17.6332 49.3495 21.2286 49.515 21.9838H46.0862C46.4284 21.1142 47.7322 17.7738 47.7322 17.7738C47.7073 17.8124 48.0706 16.9005 48.2796 16.3356Z"
          fill="#1A1F71"/>
    <path fill-rule="evenodd" clip-rule="evenodd"
          d="M4 12.2427V12.4865C9.18038 13.7331 12.7783 16.8819 14.2015 20.5009L12.7049 13.5291C12.4548 12.5748 11.6972 12.2763 10.8002 12.2427H4Z"
          fill="#1A1F71"/>
</svg>
