<svg width="60" height="40" viewBox="0 0 60 40" fill="none" xmlns="http://www.w3.org/2000/svg">
    <rect x="0.5" y="0.5" width="59" height="39" rx="3.5" fill="white" stroke="#DDDDDD"/>
    <path d="M23.6101 33.5315V31.7933C23.6203 31.6471 23.5992 31.5004 23.5482 31.363C23.4972 31.2256 23.4175 31.1006 23.3145 30.9965C23.2114 30.8923 23.0873 30.8113 22.9504 30.7589C22.8136 30.7064 22.6671 30.6838 22.5208 30.6924C22.3294 30.68 22.1381 30.7191 21.9669 30.8057C21.7957 30.8923 21.6508 31.0233 21.5475 31.1849C21.4533 31.0281 21.3185 30.8996 21.1574 30.8129C20.9963 30.7262 20.8148 30.6846 20.632 30.6924C20.4727 30.6844 20.314 30.7182 20.1718 30.7903C20.0295 30.8625 19.9085 30.9705 19.8209 31.1038V30.762H19.2183V33.5315H19.8266V31.9961C19.8135 31.9014 19.8215 31.8049 19.85 31.7136C19.8786 31.6223 19.927 31.5385 19.9918 31.4681C20.0566 31.3978 20.1362 31.3427 20.2249 31.3067C20.3135 31.2708 20.409 31.2549 20.5045 31.2603C20.9043 31.2603 21.1071 31.521 21.1071 31.9903V33.5315H21.7155V31.9961C21.7033 31.9015 21.712 31.8054 21.7409 31.7146C21.7699 31.6237 21.8183 31.5403 21.8829 31.4702C21.9475 31.4001 22.0267 31.3449 22.1149 31.3087C22.2031 31.2724 22.2981 31.2559 22.3934 31.2603C22.8047 31.2603 23.0017 31.521 23.0017 31.9903V33.5315H23.6101ZM27.0054 32.1467V30.762H26.4028V31.098C26.2999 30.9655 26.1668 30.8595 26.0146 30.7889C25.8624 30.7184 25.6955 30.6853 25.5279 30.6924C25.1545 30.7107 24.8025 30.872 24.5447 31.1427C24.2869 31.4134 24.1432 31.7729 24.1432 32.1467C24.1432 32.5206 24.2869 32.8801 24.5447 33.1508C24.8025 33.4215 25.1545 33.5827 25.5279 33.6011C25.6955 33.6082 25.8624 33.5751 26.0146 33.5046C26.1668 33.434 26.2999 33.328 26.4028 33.1954V33.5315H27.0054V32.1467ZM24.7631 32.1467C24.7725 31.9833 24.8294 31.8262 24.927 31.6947C25.0246 31.5633 25.1585 31.4633 25.3122 31.4071C25.466 31.3508 25.6328 31.3408 25.7921 31.3783C25.9515 31.4157 26.0964 31.499 26.209 31.6178C26.3216 31.7366 26.397 31.8858 26.4258 32.0469C26.4546 32.208 26.4357 32.3741 26.3713 32.5246C26.3068 32.6751 26.1998 32.8034 26.0633 32.8938C25.9268 32.9842 25.7669 33.0326 25.6032 33.0332C25.4885 33.0347 25.3747 33.0125 25.269 32.9679C25.1633 32.9233 25.0679 32.8572 24.989 32.7739C24.9101 32.6907 24.8493 32.5919 24.8104 32.484C24.7715 32.376 24.7554 32.2612 24.7631 32.1467ZM39.899 30.6892C40.1024 30.6872 40.3043 30.725 40.4933 30.8006C40.6694 30.8708 40.83 30.975 40.9661 31.1071C41.1 31.2384 41.2062 31.3953 41.2784 31.5683C41.4289 31.9392 41.4289 32.3542 41.2784 32.7251C41.2062 32.8982 41.1 33.0551 40.9661 33.1864C40.83 33.3185 40.6694 33.4227 40.4933 33.4929C40.111 33.6414 39.6869 33.6414 39.3046 33.4929C39.1288 33.4229 38.9686 33.3187 38.8332 33.1864C38.7001 33.0547 38.5944 32.8979 38.5224 32.7251C38.372 32.3541 38.372 31.9393 38.5224 31.5683C38.5945 31.3956 38.7001 31.2388 38.8332 31.1071C38.9686 30.9748 39.1288 30.8706 39.3046 30.8006C39.4936 30.725 39.6955 30.6872 39.899 30.6892ZM39.899 31.2589C39.7811 31.2579 39.6642 31.28 39.5549 31.324C39.4518 31.3654 39.3583 31.4273 39.2801 31.5062C39.2014 31.5867 39.1394 31.682 39.0979 31.7867C39.0092 32.0186 39.0092 32.275 39.0979 32.5068C39.1394 32.6115 39.2014 32.7068 39.2801 32.7873C39.3583 32.8662 39.4518 32.9282 39.5549 32.9695C39.7761 33.0563 40.0219 33.0563 40.2431 32.9695C40.3464 32.9279 40.4403 32.866 40.5193 32.7873C40.5987 32.7071 40.6612 32.6117 40.703 32.5068C40.7917 32.275 40.7917 32.0186 40.703 31.7867C40.6612 31.6818 40.5987 31.5864 40.5193 31.5062C40.4403 31.4275 40.3464 31.3656 40.2431 31.324C40.1337 31.28 40.0168 31.2579 39.899 31.2589ZM30.2842 32.1467C30.2784 31.2834 29.7454 30.6924 28.969 30.6924C28.5932 30.7121 28.2396 30.8767 27.9825 31.1514C27.7253 31.4262 27.5846 31.7899 27.5899 32.1662C27.5951 32.5425 27.7459 32.9022 28.0106 33.1697C28.2753 33.4372 28.6333 33.5918 29.0096 33.601C29.4229 33.6155 29.8272 33.4773 30.1452 33.2128L29.8497 32.7667C29.6209 32.95 29.3375 33.052 29.0443 33.0564C28.8452 33.0731 28.6474 33.0117 28.4928 32.8852C28.3381 32.7587 28.2388 32.577 28.2157 32.3785H30.2726C30.2784 32.3032 30.2842 32.2279 30.2842 32.1467ZM28.2216 31.9034C28.2322 31.7174 28.3151 31.543 28.4526 31.4174C28.5901 31.2918 28.7713 31.225 28.9574 31.2313C29.1394 31.2278 29.3154 31.2965 29.4468 31.4225C29.5782 31.5485 29.6543 31.7214 29.6585 31.9034H28.2216ZM32.8218 31.4689C32.5589 31.3176 32.2618 31.2359 31.9586 31.2313C31.6283 31.2313 31.4313 31.353 31.4313 31.5558C31.4313 31.7412 31.6399 31.7933 31.9006 31.828L32.1845 31.8686C32.7871 31.9555 33.1521 32.2104 33.1521 32.6971C33.1521 33.2244 32.6886 33.6011 31.889 33.6011C31.4611 33.6129 31.0406 33.4869 30.6897 33.2417L30.9736 32.7725C31.2395 32.9697 31.5639 33.0717 31.8948 33.0622C32.3062 33.0622 32.5264 32.9405 32.5264 32.7261C32.5264 32.5697 32.3699 32.4828 32.0397 32.4364L31.7558 32.3959C31.1358 32.309 30.7998 32.0309 30.7998 31.5789C30.7998 31.0285 31.2517 30.6924 31.9528 30.6924C32.3494 30.6788 32.7415 30.7793 33.0826 30.9822L32.8218 31.4689ZM35.7172 31.3124H34.7323V32.5639C34.7323 32.842 34.8308 33.0274 35.1321 33.0274C35.3201 33.0212 35.5035 32.9674 35.6651 32.871L35.8389 33.3867C35.613 33.5275 35.3519 33.6018 35.0857 33.6011C34.3731 33.6011 34.1239 33.2187 34.1239 32.5755V31.3124H33.5619V30.762H34.1239L34.1238 29.9219H34.7321L34.7323 30.762H35.7172V31.3124ZM37.8026 30.6924C37.9488 30.693 38.0938 30.7185 38.2314 30.7678L38.046 31.3356C37.9262 31.2879 37.7983 31.2643 37.6694 31.266C37.2754 31.266 37.0783 31.521 37.0783 31.9787V33.5315H36.4758V30.762H37.0726V31.098C37.1465 30.971 37.2534 30.8663 37.3818 30.7949C37.5103 30.7235 37.6557 30.6881 37.8026 30.6924ZM41.9742 33.1283C42.0117 33.1281 42.0488 33.1355 42.0834 33.15C42.1166 33.1638 42.1469 33.1839 42.1726 33.2091C42.1981 33.2342 42.2185 33.264 42.2327 33.2969C42.2472 33.3307 42.2546 33.3671 42.2546 33.4038C42.2546 33.4406 42.2472 33.477 42.2327 33.5107C42.2184 33.5435 42.198 33.5732 42.1726 33.5982C42.1468 33.6234 42.1166 33.6436 42.0834 33.6576C42.0489 33.6724 42.0118 33.6799 41.9742 33.6796C41.919 33.6802 41.8649 33.6645 41.8186 33.6344C41.7723 33.6044 41.7358 33.5614 41.7138 33.5107C41.6994 33.477 41.6919 33.4406 41.6919 33.4038C41.6919 33.3671 41.6994 33.3307 41.7138 33.2969C41.728 33.2641 41.7483 33.2343 41.7737 33.2091C41.7993 33.1837 41.8297 33.1636 41.8632 33.15C41.8984 33.1354 41.9361 33.128 41.9742 33.1283ZM41.9742 33.6188C42.0028 33.619 42.0312 33.6133 42.0574 33.6019C42.0826 33.591 42.1055 33.5754 42.1249 33.556C42.1498 33.5312 42.1682 33.5006 42.1785 33.467C42.1889 33.4334 42.1908 33.3978 42.1841 33.3633C42.1774 33.3287 42.1624 33.2964 42.1403 33.269C42.1182 33.2417 42.0897 33.2202 42.0574 33.2064C42.0311 33.1952 42.0028 33.1896 41.9742 33.1898C41.9452 33.1896 41.9163 33.1952 41.8895 33.2064C41.8639 33.217 41.8406 33.2324 41.8209 33.2519C41.7808 33.2924 41.7584 33.347 41.7584 33.404C41.7584 33.4609 41.7808 33.5155 41.8209 33.556C41.8411 33.576 41.865 33.5919 41.8913 33.6027C41.9176 33.6135 41.9458 33.619 41.9742 33.6188ZM41.9905 33.2749C42.0176 33.2731 42.0445 33.2809 42.0665 33.2969C42.0753 33.3041 42.0822 33.3133 42.0869 33.3237C42.0915 33.334 42.0937 33.3453 42.0932 33.3567C42.0935 33.3664 42.0917 33.3761 42.0881 33.3851C42.0844 33.3941 42.0789 33.4023 42.0719 33.409C42.0551 33.4239 42.0338 33.4329 42.0114 33.4344L42.0952 33.531H42.0297L41.952 33.435H41.927V33.531H41.8723V33.2749H41.9905ZM41.927 33.3229V33.3912H41.9898C42.0019 33.3918 42.0139 33.3888 42.0243 33.3827C42.0285 33.3798 42.0319 33.376 42.0342 33.3714C42.0364 33.3668 42.0374 33.3618 42.0371 33.3567C42.0374 33.3517 42.0363 33.3467 42.0341 33.3423C42.0318 33.3378 42.0285 33.334 42.0243 33.3313C42.0139 33.3252 42.0019 33.3223 41.9898 33.3229H41.927Z"
          fill="black"/>
    <path d="M34.8605 9.62451H25.7218V26.047H34.8605V9.62451Z" fill="#7375CF"/>
    <path d="M26.3021 17.8358C26.3006 16.2542 26.659 14.693 27.3501 13.2704C28.0413 11.8478 29.047 10.6011 30.2911 9.62458C28.7504 8.41352 26.9 7.66039 24.9515 7.45125C23.003 7.24211 21.0349 7.58541 19.2723 8.44191C17.5096 9.29841 16.0235 10.6336 14.9838 12.2947C13.9441 13.9559 13.3927 15.8761 13.3927 17.8358C13.3927 19.7955 13.9441 21.7157 14.9838 23.3769C16.0235 25.0381 17.5096 26.3732 19.2723 27.2297C21.0349 28.0862 23.003 28.4295 24.9515 28.2204C26.9 28.0112 28.7504 27.2581 30.2911 26.0471C29.047 25.0706 28.0413 23.8238 27.3501 22.4012C26.659 20.9786 26.3006 19.4174 26.3021 17.8358Z"
          fill="#EB001B"/>
    <path d="M46.1926 24.3077V23.9715H46.3282V23.903H45.9829V23.9715H46.1185V24.3077H46.1926ZM46.8629 24.3077V23.9023H46.7571L46.6354 24.1812L46.5136 23.9023H46.4077V24.3077H46.4824V24.0019L46.5966 24.2656H46.6741L46.7882 24.0013V24.3077H46.8629Z"
          fill="#00A2E5"/>
    <path d="M47.1891 17.8358C47.1891 19.7955 46.6378 21.7157 45.5982 23.3769C44.5585 25.038 43.0724 26.3732 41.3098 27.2297C39.5472 28.0862 37.5792 28.4295 35.6307 28.2204C33.6822 28.0112 31.8318 27.2581 30.2911 26.0471C31.5342 25.0696 32.5391 23.8227 33.2301 22.4003C33.9211 20.9779 34.2802 19.4172 34.2802 17.8358C34.2802 16.2545 33.9211 14.6938 33.2301 13.2714C32.5391 11.849 31.5342 10.602 30.2911 9.62458C31.8318 8.41352 33.6822 7.66038 35.6307 7.45125C37.5792 7.24211 39.5472 7.58542 41.3098 8.44193C43.0724 9.29844 44.5585 10.6336 45.5982 12.2948C46.6378 13.9559 47.1891 15.8761 47.1891 17.8358Z"
          fill="#00A2E5"/>
</svg>
