<svg width="60" height="40" viewBox="0 0 60 40" fill="none" xmlns="http://www.w3.org/2000/svg">
    <rect x="0.5" y="0.5" width="59" height="39" rx="3.5" fill="white" stroke="#DDDDDD"/>
    <path d="M5 35.8168H55V4H5V35.8168Z" fill="white"/>
    <path d="M5.83264 34.9878H54.1664V30.647H5.83264V34.9878Z" fill="#F8B600"/>
    <path d="M5.83264 9.17534H54.1664V4.83447H5.83264V9.17534Z" fill="#1A1F71"/>
    <path fill-rule="evenodd" clip-rule="evenodd"
          d="M37.9417 21.9939C37.9499 20.1098 36.3927 19.2906 35.1466 18.6351C34.3101 18.195 33.6139 17.8287 33.6255 17.2637C33.635 16.8361 34.042 16.3807 34.932 16.2643C35.3735 16.2072 36.5908 16.1613 37.9711 16.7983L38.511 14.2671C37.7695 13.9985 36.8156 13.7397 35.6288 13.7397C32.5825 13.7397 30.4394 15.3606 30.4223 17.6836C30.4029 19.4014 31.9531 20.3591 33.1186 20.9312C34.3204 21.516 34.7232 21.8912 34.7174 22.4136C34.7091 23.2141 33.7589 23.5684 32.8746 23.5818C31.3714 23.6052 30.4814 23.1888 29.7758 22.8586L29.7098 22.8277L29.1505 25.4434C29.8716 25.7741 31.2003 26.0618 32.5762 26.0767C35.8147 26.0767 37.9323 24.4746 37.9417 21.9939ZM29.5827 13.9577L27.035 25.8893H23.9535L26.5015 13.9577H29.5827ZM42.5466 21.6623L44.1688 17.1814L45.1019 21.6623H42.5466ZM48.8355 25.8893H45.9862L45.6128 24.1075H41.66L41.0174 25.8893H37.7813L42.4052 14.8324C42.6262 14.3018 43.1253 13.9577 43.7177 13.9577H46.3461L48.8355 25.8893ZM20.1869 25.8893L25.1797 13.9577H21.9424L18.7369 22.0785L17.439 15.1735C17.2862 14.4029 16.6853 13.9577 16.0174 13.9577H10.7739L10.7012 14.3039C11.7767 14.5386 13.0001 14.9156 13.741 15.3189C14.1941 15.5663 14.3239 15.7815 14.4728 16.367L16.9299 25.8893H20.1869Z"
          fill="#1A1F71"/>
    <path fill-rule="evenodd" clip-rule="evenodd"
          d="M40.0988 27.1247C40.3356 27.1247 40.5475 27.157 40.7347 27.2216C40.9219 27.2863 41.0807 27.3796 41.2109 27.5016C41.3411 27.6237 41.4403 27.7731 41.5083 27.9499C41.5764 28.1266 41.6104 28.3272 41.6104 28.5515C41.6104 28.777 41.5764 28.9782 41.5083 29.155C41.4403 29.3318 41.3415 29.4812 41.212 29.6032C41.0825 29.7253 40.9242 29.8186 40.737 29.8832C40.5498 29.9479 40.337 29.9802 40.0988 29.9802H39V27.1247H40.0988ZM39.3996 29.6596H40.0721C40.2542 29.6596 40.4151 29.6352 40.5549 29.5864C40.6948 29.5376 40.8128 29.4664 40.909 29.3727C41.0052 29.279 41.0781 29.1636 41.1276 29.0264C41.1772 28.8892 41.202 28.7322 41.202 28.5554C41.202 28.3773 41.1772 28.219 41.1276 28.0805C41.0781 27.942 41.0055 27.8259 40.9101 27.7322C40.8146 27.6385 40.6966 27.5673 40.556 27.5185C40.4155 27.4697 40.2542 27.4453 40.0721 27.4453H39.3996V29.6596ZM43.0111 28.1299C42.9179 28.1299 42.8313 28.1445 42.7514 28.1735C42.6715 28.2025 42.6023 28.2434 42.5438 28.2962C42.4854 28.3489 42.438 28.4126 42.4018 28.4871C42.3655 28.5617 42.3444 28.6438 42.3385 28.7335H43.6548C43.6519 28.6425 43.6345 28.56 43.6027 28.4861C43.5708 28.4123 43.5268 28.3489 43.4706 28.2962C43.4144 28.2434 43.3474 28.2025 43.2697 28.1735C43.192 28.1445 43.1058 28.1299 43.0111 28.1299ZM44.0277 29.3707C44.0115 29.4617 43.9745 29.5458 43.9168 29.623C43.859 29.7002 43.7862 29.7668 43.6981 29.8229C43.6101 29.879 43.5094 29.9225 43.3962 29.9535C43.283 29.9845 43.1628 30 43.0355 30C42.8668 30 42.7151 29.9749 42.5805 29.9248C42.4458 29.8747 42.3307 29.8028 42.2353 29.7091C42.1398 29.6154 42.0666 29.502 42.0155 29.3687C41.9645 29.2355 41.939 29.0864 41.939 28.9215C41.939 28.7566 41.9645 28.6069 42.0155 28.4723C42.0666 28.3377 42.1391 28.2226 42.2331 28.127C42.327 28.0313 42.4406 27.9575 42.5738 27.9053C42.707 27.8532 42.855 27.8272 43.0178 27.8272C43.1776 27.8272 43.3215 27.8516 43.4495 27.9004C43.5775 27.9492 43.6866 28.0188 43.7769 28.1092C43.8672 28.1995 43.9364 28.3094 43.9845 28.4387C44.0326 28.5679 44.0566 28.7131 44.0566 28.874V29.0086H42.3385V29.0284C42.3385 29.1299 42.3552 29.222 42.3885 29.3044C42.4218 29.3869 42.4695 29.4571 42.5316 29.5152C42.5938 29.5732 42.6681 29.6181 42.7547 29.6497C42.8413 29.6814 42.9378 29.6972 43.0444 29.6972C43.1199 29.6972 43.1902 29.6896 43.2553 29.6745C43.3204 29.6593 43.3792 29.6375 43.4317 29.6092C43.4843 29.5808 43.5287 29.5465 43.5649 29.5063C43.6012 29.466 43.6282 29.4208 43.6459 29.3707H44.0277ZM45.6393 30C45.4647 30 45.3108 29.9677 45.1776 29.903C45.0444 29.8384 44.9386 29.7441 44.8602 29.6201H44.8513V29.9802H44.485V27H44.8713V28.1933H44.8801C44.9556 28.0759 45.0599 27.9855 45.1931 27.9222C45.3263 27.8588 45.478 27.8272 45.6482 27.8272C45.7991 27.8272 45.9367 27.8532 46.061 27.9053C46.1854 27.9575 46.2919 28.031 46.3807 28.126C46.4695 28.221 46.5383 28.3354 46.5871 28.4693C46.636 28.6032 46.6604 28.7513 46.6604 28.9136C46.6604 29.0772 46.636 29.2256 46.5871 29.3588C46.5383 29.4921 46.4691 29.6062 46.3796 29.7012C46.29 29.7962 46.1824 29.8697 46.0566 29.9218C45.9308 29.9739 45.7917 30 45.6393 30ZM45.5705 28.1339C45.4654 28.1339 45.37 28.153 45.2841 28.1913C45.1983 28.2296 45.1247 28.283 45.0633 28.3516C45.0018 28.4202 44.9541 28.5023 44.9201 28.598C44.8861 28.6936 44.869 28.7988 44.869 28.9136C44.869 29.0297 44.8861 29.1356 44.9201 29.2312C44.9541 29.3268 45.0018 29.409 45.0633 29.4776C45.1247 29.5462 45.1983 29.5993 45.2841 29.6369C45.37 29.6745 45.4654 29.6933 45.5705 29.6933C45.6755 29.6933 45.7706 29.6748 45.8557 29.6379C45.9408 29.6009 46.0137 29.5488 46.0744 29.4815C46.135 29.4142 46.182 29.3325 46.2153 29.2361C46.2486 29.1398 46.2653 29.0323 46.2653 28.9136C46.2653 28.7949 46.2486 28.6877 46.2153 28.592C46.182 28.4964 46.135 28.4146 46.0744 28.3466C46.0137 28.2787 45.9408 28.2263 45.8557 28.1893C45.7706 28.1524 45.6755 28.1339 45.5705 28.1339ZM47.0888 27.847H47.475V29.9802H47.0888V27.847ZM47.2819 27.5026C47.2479 27.5026 47.2161 27.497 47.1865 27.4858C47.1569 27.4746 47.131 27.4591 47.1088 27.4393C47.0866 27.4195 47.0692 27.3964 47.0566 27.3701C47.044 27.3437 47.0377 27.3153 47.0377 27.285C47.0377 27.2546 47.044 27.2263 47.0566 27.1999C47.0692 27.1735 47.0866 27.1504 47.1088 27.1306C47.131 27.1108 47.1569 27.0953 47.1865 27.0841C47.2161 27.0729 47.2479 27.0673 47.2819 27.0673C47.3159 27.0673 47.3478 27.0729 47.3774 27.0841C47.407 27.0953 47.4329 27.1108 47.4551 27.1306C47.4772 27.1504 47.4946 27.1735 47.5072 27.1999C47.5198 27.2263 47.5261 27.2546 47.5261 27.285C47.5261 27.3153 47.5198 27.3437 47.5072 27.3701C47.4946 27.3964 47.4772 27.4195 47.4551 27.4393C47.4329 27.4591 47.407 27.4746 47.3774 27.4858C47.3478 27.497 47.3159 27.5026 47.2819 27.5026ZM48.5339 27.3661V27.847H49V28.1319H48.5339V29.4123C48.5339 29.5112 48.5579 29.5834 48.606 29.629C48.6541 29.6745 48.7292 29.6972 48.8313 29.6972C48.8431 29.6972 48.8572 29.6969 48.8735 29.6962L48.9223 29.6943C48.9386 29.6936 48.9534 29.6926 48.9667 29.6913C48.98 29.69 48.9904 29.6887 48.9978 29.6873V29.9782C48.9741 29.9835 48.9382 29.9878 48.8901 29.9911C48.842 29.9944 48.795 29.996 48.7492 29.996C48.6411 29.996 48.549 29.9855 48.4728 29.9644C48.3966 29.9433 48.3344 29.91 48.2863 29.8644C48.2383 29.8189 48.2031 29.7602 48.1809 29.6883C48.1587 29.6164 48.1476 29.529 48.1476 29.4261V28.1319H47.8147V27.847H48.1476V27.3661H48.5339Z"
          fill="#1A1F71"/>
</svg>
